<svg width="1920" height="126" viewBox="0 0 1920 126" fill="none" xmlns="http://www.w3.org/2000/svg">
<path d="M1550.96 1.72095C1548.61 4.06345 1549.92 6.83975 1553.13 6.3192C1554.77 6.14568 1555.21 5.53836 1555.21 3.45614C1555.21 0.419556 1553.13 -0.448038 1550.96 1.72095Z" fill="black"/>
<path d="M1419.17 1.80656C1418.04 2.93443 1418.56 6.57833 1419.86 7.01212C1421.68 7.79296 1423.94 5.71073 1423.59 3.54175C1423.33 1.7198 1420.38 0.591926 1419.17 1.80656Z" fill="black"/>
<path d="M1428.71 1.8958C1427.67 2.85015 1428.02 5.36617 1429.23 6.40729C1431.05 7.8822 1433.66 5.53969 1432.96 3.19719C1432.35 1.37524 1429.92 0.594406 1428.71 1.8958Z" fill="black"/>
<path d="M1438.25 1.80656C1437.12 2.93443 1437.64 6.57833 1438.95 7.01212C1440.77 7.79296 1443.02 5.71073 1442.68 3.54175C1442.42 1.7198 1439.47 0.591926 1438.25 1.80656Z" fill="black"/>
<path d="M1561.71 2.59157C1560.23 4.32676 1561.02 6.84278 1563.1 7.18982C1565.7 7.53686 1567.26 5.36787 1566.05 3.11213C1564.92 0.943144 1563.18 0.769625 1561.71 2.59157Z" fill="black"/>
<path d="M1573.25 2.41529C1571.43 4.7578 1571.26 5.53863 1572.64 6.84002C1574.29 8.57521 1577.33 7.27382 1577.33 4.7578C1577.33 2.58881 1574.38 0.853624 1573.25 2.41529Z" fill="black"/>
<path d="M1636.41 3.37214C1634.68 5.45437 1635.63 7.79688 1638.06 7.79688C1639.88 7.79688 1640.23 7.36308 1640.23 5.19409C1640.23 2.24427 1638.15 1.28992 1636.41 3.37214Z" fill="black"/>
<path d="M1296.66 4.84451C1295.53 8.40165 1300.48 10.3104 1301.78 6.83998C1302.56 4.84451 1301.35 3.02256 1299.26 3.02256C1297.96 3.02256 1297.01 3.71664 1296.66 4.84451Z" fill="black"/>
<path d="M1306.99 4.23933C1306.12 6.49508 1307.07 8.66406 1308.81 8.66406C1310.11 8.66406 1310.63 7.96999 1310.8 5.801C1311.06 3.4585 1310.8 3.0247 1309.24 3.0247C1308.29 3.0247 1307.25 3.54526 1306.99 4.23933Z" fill="black"/>
<path d="M1315.84 4.40874C1315.23 5.88365 1316.62 9.09375 1317.92 9.09375C1319.31 9.09375 1321.48 6.23069 1321.04 5.01606C1320.78 4.32198 1320.52 3.54115 1320.52 3.36763C1320.52 2.32651 1316.27 3.19411 1315.84 4.40874Z" fill="black"/>
<path d="M1325.73 4.32122C1323.47 7.01077 1327.29 10.4811 1329.8 7.96512C1331.45 6.31669 1330.5 3.01983 1328.41 3.01983C1327.55 3.01983 1326.33 3.62715 1325.73 4.32122Z" fill="black"/>
<path d="M1646.91 3.80554C1646.22 4.15257 1645.87 5.45396 1646.04 6.58184C1646.22 8.14351 1646.83 8.66406 1648.47 8.66406C1650.3 8.66406 1650.64 8.23027 1650.64 6.06128C1650.64 3.37174 1648.99 2.41738 1646.91 3.80554Z" fill="black"/>
<path d="M1657.32 4.06327C1655.93 5.45142 1656.02 8.83504 1657.41 9.3556C1659.05 9.96291 1661.48 8.31448 1661.48 6.66605C1661.48 5.19114 1659.92 3.02216 1658.88 3.02216C1658.62 3.02216 1657.93 3.45596 1657.32 4.06327Z" fill="black"/>
<path d="M1668.6 4.93155C1666 7.53433 1668.69 11.3517 1671.46 9.096C1673.2 7.70785 1673.11 5.10507 1671.38 4.41099C1669.64 3.71692 1669.81 3.71692 1668.6 4.93155Z" fill="black"/>
<path d="M1678.58 5.27803C1678.23 5.62507 1677.97 6.8397 1677.97 7.96757C1677.97 9.78952 1678.32 10.0498 1680.4 9.78952C1682.22 9.616 1682.74 9.09544 1682.74 7.36025C1682.74 5.79858 1682.22 5.10451 1681.01 4.93099C1679.97 4.75747 1678.93 4.93099 1678.58 5.27803Z" fill="black"/>
<path d="M1688.47 5.89054C1687 7.71249 1688.21 10.1418 1690.47 9.79471C1691.77 9.62119 1692.29 8.92712 1692.29 7.36545C1692.29 4.93619 1690.03 4.06859 1688.47 5.89054Z" fill="black"/>
<path d="M1697.4 6.05676C1696.71 7.87871 1697.58 9.96094 1699.05 9.96094C1700.79 9.96094 1702.52 7.61843 1701.91 6.05676C1701.31 4.40833 1698.01 4.32157 1697.4 6.05676Z" fill="black"/>
<path d="M1366.5 12.9972C1365.2 14.5588 1365.64 16.9013 1367.55 18.116C1369.8 19.5041 1372.14 16.9013 1371.36 13.9515C1370.76 11.4355 1368.24 10.9149 1366.5 12.9972Z" fill="black"/>
<path d="M1390.62 13.5249C1387.24 15.4336 1390.19 20.3789 1393.57 18.5569C1395.39 17.6026 1395.65 15.1733 1394.09 13.6116C1392.88 12.397 1392.53 12.397 1390.62 13.5249Z" fill="black"/>
<path d="M1516.77 13.6037C1515.38 14.9919 1515.47 16.4668 1517.12 18.1152C1519.11 20.1975 1521.98 18.3755 1521.63 15.3389C1521.37 12.7362 1518.59 11.7818 1516.77 13.6037Z" fill="black"/>
<path d="M1279.05 14.4737C1276.45 17.0765 1279.31 21.1542 1282.52 19.419C1285.13 18.0309 1283.91 13.4326 1281.05 13.4326C1280.53 13.4326 1279.66 13.8664 1279.05 14.4737Z" fill="black"/>
<path d="M1817.22 15.1735C1816 16.5617 1815.92 17.0822 1816.78 18.2101C1819.21 21.1599 1823.46 18.5571 1821.38 15.347C1820.08 13.2648 1818.95 13.2648 1817.22 15.1735Z" fill="black"/>
<path d="M1828.24 15.3445C1826.85 16.7327 1826.94 20.1163 1828.32 20.6368C1829.97 21.2442 1832.4 19.5957 1832.4 17.9473C1832.4 16.4724 1830.84 14.3034 1829.8 14.3034C1829.54 14.3034 1828.84 14.7372 1828.24 15.3445Z" fill="black"/>
<path d="M1838.65 15.3468C1836.22 17.776 1838.91 22.5478 1841.51 20.3788C1842.2 19.7715 1842.81 18.6436 1842.81 17.8628C1842.81 16.3879 1841.25 14.3057 1840.21 14.3057C1839.95 14.3057 1839.25 14.7395 1838.65 15.3468Z" fill="black"/>
<path d="M1483.97 19.9411C1483.28 22.7174 1484.49 24.1056 1487.18 23.6718C1488.83 23.4983 1489.27 22.891 1489.27 20.8087C1489.27 18.6397 1488.92 18.1192 1486.92 17.9457C1485.01 17.6854 1484.41 18.1192 1483.97 19.9411Z" fill="black"/>
<path d="M1699.75 18.9891C1698.97 19.9434 1698.88 20.7243 1699.66 22.0257C1701.31 25.149 1705.21 23.7609 1704.69 20.2905C1704.35 17.8612 1701.31 17.0804 1699.75 18.9891Z" fill="black"/>
<path d="M1559.2 20.7196C1557.55 22.7151 1558.85 25.5781 1561.36 25.5781C1563.79 25.5781 1565.01 23.4091 1563.71 21.3269C1562.49 19.4182 1560.5 19.1579 1559.2 20.7196Z" fill="black"/>
<path d="M1592.16 21.07C1591.56 22.2846 1591.64 23.239 1592.6 24.5404C1594.42 27.2299 1597.54 25.6682 1597.11 22.2846C1596.76 19.3348 1593.55 18.554 1592.16 21.07Z" fill="black"/>
<path d="M1616.37 20.8136C1614.72 22.8091 1615.68 25.1516 1618.28 25.4119C1619.93 25.5854 1620.71 25.2384 1621.14 23.8502C1622.18 20.4666 1618.63 18.1241 1616.37 20.8136Z" fill="black"/>
<path d="M1450.23 22.111C1448.32 24.1933 1449.27 26.8828 1451.96 26.8828C1454.22 26.8828 1455.69 24.1933 1454.48 22.3713C1453.09 20.2023 1452.05 20.1156 1450.23 22.111Z" fill="black"/>
<path d="M1421.33 23.1536C1419.95 24.5418 1420.03 26.0167 1421.68 27.6651C1423.5 29.4871 1426.37 28.0122 1426.37 25.2359C1426.37 22.3728 1423.33 21.1582 1421.33 23.1536Z" fill="black"/>
<path d="M1294.06 27.4019C1293.71 27.8357 1293.71 29.2239 1293.97 30.4385C1294.4 32.087 1295.01 32.5208 1296.4 32.3472C1298.66 32.0002 1300.13 29.7445 1299.44 27.8357C1298.83 26.2741 1294.93 25.927 1294.06 27.4019Z" fill="black"/>
<path d="M1317.05 27.748C1315.49 29.6567 1316.96 32.0859 1319.74 32.0859C1321.47 32.0859 1321.82 31.6521 1321.82 29.4832C1321.82 27.4877 1321.39 26.7936 1320 26.6201C1319.05 26.4466 1317.66 26.9671 1317.05 27.748Z" fill="black"/>
<path d="M1279.05 28.0946C1278.36 28.4416 1278.01 29.743 1278.18 30.8709C1278.36 32.5193 1278.97 32.9531 1281.05 32.9531C1283.91 32.9531 1284.95 30.7841 1283.22 28.6152C1282 27.1402 1280.7 26.9667 1279.05 28.0946Z" fill="black"/>
<path d="M1382.55 28.1851C1381.51 29.9202 1382.9 33.3906 1384.64 33.3906C1387.07 33.3906 1388.71 30.9614 1387.59 29.2262C1386.54 27.491 1383.42 26.7969 1382.55 28.1851Z" fill="black"/>
<path d="M1391.14 28.5284C1390.19 31.0444 1391.14 32.9531 1393.4 32.9531C1395.22 32.9531 1395.57 32.5193 1395.57 30.3503C1395.57 28.2681 1395.13 27.6608 1393.57 27.4873C1392.44 27.3138 1391.49 27.7476 1391.14 28.5284Z" fill="black"/>
<path d="M1814.79 27.9202C1813.57 29.0481 1814.18 31.6509 1815.83 32.5185C1817.82 33.5596 1820.69 31.3039 1819.91 29.3084C1819.65 28.6143 1819.39 27.8335 1819.39 27.66C1819.39 27.0527 1815.4 27.2262 1814.79 27.9202Z" fill="black"/>
<path d="M1359.3 30.0042C1357.31 31.1321 1357.39 33.9951 1359.48 35.123C1361.39 36.0774 1363.9 34.3422 1363.9 32.0864C1363.9 30.2645 1361.13 29.0498 1359.3 30.0042Z" fill="black"/>
<path d="M1839.6 29.6575C1838.04 30.2649 1838.21 33.822 1839.77 35.1234C1841.51 36.5115 1843.68 34.8631 1843.68 32.0868C1843.68 30.5251 1841.77 28.6164 1840.81 29.137C1840.73 29.137 1840.12 29.3973 1839.6 29.6575Z" fill="black"/>
<path d="M1861.2 31.5733C1859.38 32.7012 1860.25 36.3451 1862.5 36.6921C1864.93 37.0391 1866.84 33.9158 1865.28 32.0071C1864.15 30.6189 1862.85 30.4454 1861.2 31.5733Z" fill="black"/>
<path d="M1513.21 35.4696C1511.56 37.4651 1512.86 40.3281 1515.38 40.3281C1517.81 40.3281 1519.02 38.1591 1517.72 36.0769C1516.51 34.1682 1514.51 33.9079 1513.21 35.4696Z" fill="black"/>
<path d="M1697.06 37.2948C1695.5 39.2035 1696.36 41.6328 1698.71 41.6328C1701.48 41.6328 1702.96 39.2035 1701.48 37.3816C1700.01 35.6464 1698.45 35.6464 1697.06 37.2948Z" fill="black"/>
<path d="M1558.85 37.3821C1556.68 39.5511 1559.54 43.4552 1562.58 42.5009C1565.36 41.6333 1564.66 37.3821 1561.71 37.035C1560.5 36.8615 1559.2 37.035 1558.85 37.3821Z" fill="black"/>
<path d="M1483.97 38.9381C1483.11 41.1938 1484.06 43.3628 1486.06 43.6231C1488.31 43.9701 1490.13 40.6733 1488.66 38.7645C1487.44 37.3764 1484.58 37.4632 1483.97 38.9381Z" fill="black"/>
<path d="M1589.65 38.7723C1588.09 40.3339 1588.44 42.7632 1590.26 43.8043C1592.25 44.8454 1594.68 42.9367 1594.68 40.3339C1594.68 37.9914 1591.47 36.9503 1589.65 38.7723Z" fill="black"/>
<path d="M1722.73 38.8543C1720.48 40.5027 1722.3 44.9275 1725.08 44.4937C1727.25 44.2334 1728.11 40.9365 1726.55 38.9411C1725.25 37.4662 1724.73 37.3794 1722.73 38.8543Z" fill="black"/>
<path d="M1569.87 39.8909C1568.65 43.101 1572.12 45.8773 1574.47 43.5348C1576.37 41.6261 1575.16 38.5896 1572.47 38.5896C1571.26 38.5896 1570.13 39.1969 1569.87 39.8909Z" fill="black"/>
<path d="M1278.61 40.0717C1277.31 41.3731 1278.09 44.5832 1279.83 45.1037C1282.26 45.8846 1284.43 43.7156 1283.65 41.2863C1283.13 39.5511 1279.92 38.7703 1278.61 40.0717Z" fill="black"/>
<path d="M1450.49 40.4162C1448.58 41.4573 1448.49 43.2792 1450.23 45.0144C1452.83 47.5304 1456.39 43.5395 1454.13 40.7632C1452.92 39.2883 1452.48 39.2015 1450.49 40.4162Z" fill="black"/>
<path d="M1420.9 42.6751C1418.99 44.5838 1421.51 48.5748 1424.03 47.6204C1425.85 46.9264 1426.63 44.6706 1425.41 43.2825C1424.37 41.9811 1421.86 41.634 1420.9 42.6751Z" fill="black"/>
<path d="M1389.93 52.0448C1387.67 54.7344 1391.06 59.1591 1393.75 56.9034C1395.4 55.5152 1395.57 53.2595 1394.09 51.7846C1392.71 50.3964 1391.23 50.4832 1389.93 52.0448Z" fill="black"/>
<path d="M1358.87 52.3898C1358.17 52.7368 1357.83 54.0382 1358 55.1661C1358.35 57.6821 1361.91 58.1159 1363.29 55.7734C1364.94 53.1706 1361.65 50.5678 1358.87 52.3898Z" fill="black"/>
<path d="M1470.62 53.3432C1469.14 54.8181 1469.06 55.3387 1469.92 56.8136C1471.31 58.9826 1473.74 59.0694 1474.96 56.9004C1476.26 54.4711 1476.08 53.5167 1474.09 52.4756C1472.79 51.7816 1472.01 51.9551 1470.62 53.3432Z" fill="black"/>
<path d="M1861.21 52.3914C1859.39 53.5192 1860.25 57.1631 1862.42 57.5102C1864.76 57.8572 1866.5 55.6882 1865.81 53.3457C1865.2 51.5238 1863.2 51.09 1861.21 52.3914Z" fill="black"/>
<path d="M1412.66 53.2601C1410.84 54.388 1411.71 58.0319 1413.96 58.3789C1416.22 58.726 1417.52 55.6894 1415.96 53.7807C1414.74 52.3058 1414.22 52.219 1412.66 53.2601Z" fill="black"/>
<path d="M1422.9 53.7792C1421.25 55.7747 1422.2 58.1172 1424.63 58.1172C1426.02 58.1172 1426.89 57.5966 1427.06 56.5555C1427.41 54.9938 1425.85 52.4778 1424.63 52.4778C1424.29 52.4778 1423.5 53.0851 1422.9 53.7792Z" fill="black"/>
<path d="M1435.05 55.0838C1435.05 57.5131 1435.31 57.7733 1437.48 57.5131C1439.3 57.3395 1439.82 56.819 1439.82 55.0838C1439.82 53.3486 1439.3 52.8281 1437.48 52.6545C1435.31 52.3943 1435.05 52.6545 1435.05 55.0838Z" fill="black"/>
<path d="M1447.19 53.6904C1444.85 56.5534 1448.75 59.9371 1451.35 57.3343C1452.48 56.2064 1452.57 55.5991 1451.87 54.3845C1450.57 52.389 1448.58 52.1287 1447.19 53.6904Z" fill="black"/>
<path d="M1457.95 53.6925C1456.99 56.2085 1457.95 58.1172 1460.2 58.1172C1462.02 58.1172 1462.37 57.6834 1462.37 55.5144C1462.37 53.4322 1461.94 52.8249 1460.38 52.6513C1459.25 52.4778 1458.29 52.9116 1457.95 53.6925Z" fill="black"/>
<path d="M1481.81 53.867C1480.42 55.6022 1481.72 58.0314 1484.33 58.3785C1485.71 58.552 1486.32 58.1182 1486.76 56.4698C1487.02 55.2551 1487.02 53.867 1486.67 53.4332C1485.89 52.045 1483.11 52.3053 1481.81 53.867Z" fill="black"/>
<path d="M1492.83 54.0376C1491.96 56.6404 1493.17 58.6359 1495.26 58.3756C1497.95 58.0285 1497.86 52.9965 1495.17 52.6495C1493.95 52.4759 1493.17 52.9097 1492.83 54.0376Z" fill="black"/>
<path d="M1504.19 53.0019C1503.06 54.1297 1503.58 57.7736 1504.88 58.2074C1506.71 58.9883 1508.96 56.906 1508.61 54.7371C1508.35 52.9151 1505.4 51.7872 1504.19 53.0019Z" fill="black"/>
<path d="M1517.38 54.2995C1516.51 56.0347 1516.6 56.4685 1518.33 57.8566C1520.76 59.8521 1522.84 58.4639 1522.5 55.1671C1522.15 52.1305 1518.85 51.6099 1517.38 54.2995Z" fill="black"/>
<path d="M1604.83 53.0819C1603.88 53.9495 1604.14 57.5066 1605.09 58.1139C1606.83 59.155 1609.43 57.5934 1609.43 55.5111C1609.43 53.1686 1606.39 51.5202 1604.83 53.0819Z" fill="black"/>
<path d="M1615.68 53.5125C1614.12 55.0742 1614.38 57.5034 1616.2 58.4578C1618.45 59.6724 1620.02 58.2843 1619.67 55.4212C1619.41 52.7317 1617.41 51.7773 1615.68 53.5125Z" fill="black"/>
<path d="M1697.06 53.7792C1694.8 56.4688 1698.19 60.8935 1700.88 58.6377C1702.52 57.2496 1702.7 54.9938 1701.22 53.5189C1699.84 52.1308 1698.36 52.2175 1697.06 53.7792Z" fill="black"/>
<path d="M1810.45 53.0019C1809.32 54.1297 1809.84 57.7736 1811.15 58.2074C1812.97 58.9883 1815.22 56.906 1814.88 54.7371C1814.62 52.9151 1811.67 51.7872 1810.45 53.0019Z" fill="black"/>
<path d="M1818.96 53.4281C1817.92 55.0765 1819.3 58.5469 1821.04 58.5469C1823.38 58.5469 1824.51 56.7249 1823.64 54.3824C1822.86 52.387 1819.91 51.7796 1818.96 53.4281Z" fill="black"/>
<path d="M1838.82 53.7755C1838.21 55.2504 1839.86 57.6797 1841.42 57.6797C1843.16 57.6797 1844.37 55.9445 1843.94 54.1226C1843.42 52.1271 1839.51 51.8668 1838.82 53.7755Z" fill="black"/>
<path d="M1558.85 53.9509C1558.5 54.2112 1558.24 55.339 1558.24 56.4669C1558.24 59.1564 1560.76 59.8505 1562.93 57.7683C1564.32 56.2934 1564.4 55.8596 1563.45 54.7317C1562.32 53.3436 1559.8 52.9098 1558.85 53.9509Z" fill="black"/>
<path d="M1589.65 54.4659C1589.13 55.0732 1588.87 56.4614 1589.21 57.5025C1589.91 60.2788 1593.64 60.1053 1594.33 57.329C1594.59 56.1144 1594.59 54.7262 1594.24 54.2924C1593.46 52.991 1590.77 53.0778 1589.65 54.4659Z" fill="black"/>
<path d="M1722.48 53.952C1721.17 54.4726 1721 59.0708 1722.21 59.8517C1722.74 60.1119 1723.86 60.1119 1724.82 59.8517C1726.73 59.2444 1727.16 56.0343 1725.51 54.3858C1724.38 53.2579 1724.12 53.2579 1722.48 53.952Z" fill="black"/>
<path d="M1517.46 72.8683C1515.82 74.8638 1516.77 77.2063 1519.37 77.4666C1521.02 77.6401 1521.8 77.2931 1522.24 75.9049C1523.28 72.5213 1519.72 70.1788 1517.46 72.8683Z" fill="black"/>
<path d="M1565.27 73.6452C1563.45 75.8142 1564.4 78.9375 1566.83 78.9375C1569.52 78.9375 1571.17 76.5082 1569.87 74.3393C1568.57 72.3438 1566.57 72.0835 1565.27 73.6452Z" fill="black"/>
<path d="M1484.58 74.5149C1483.02 76.4236 1484.93 79.547 1487.36 79.1999C1490.05 78.8529 1490.13 73.8208 1487.45 73.4738C1486.49 73.3003 1485.19 73.8208 1484.58 74.5149Z" fill="black"/>
<path d="M1451.18 75.8108C1449.96 77.199 1449.88 77.8063 1450.66 79.368C1451.79 81.4502 1453.95 81.3635 1455.34 79.1077C1456.04 78.0666 1456.04 77.199 1455.34 76.1579C1454.04 73.9889 1452.91 73.9021 1451.18 75.8108Z" fill="black"/>
<path d="M1592.17 76.2471C1590.43 78.3294 1591.39 80.6719 1593.82 80.6719C1595.64 80.6719 1595.98 80.2381 1595.98 78.0691C1595.98 75.1193 1593.9 74.1649 1592.17 76.2471Z" fill="black"/>
<path d="M1820.43 76.9418C1818.17 79.1975 1820.25 83.4487 1823.12 82.3209C1825.03 81.6268 1825.63 79.5446 1824.59 77.5491C1823.55 75.6404 1821.99 75.3801 1820.43 76.9418Z" fill="black"/>
<path d="M1839.34 77.5475C1838.21 79.7165 1838.21 79.89 1839.86 81.4517C1841.51 83.1869 1844.55 81.8855 1844.55 79.543C1844.55 76.0726 1840.9 74.7712 1839.34 77.5475Z" fill="black"/>
<path d="M1423.5 77.3757C1422.46 78.3301 1422.81 80.8461 1424.11 81.8872C1426.36 83.7959 1429.57 81.0196 1428.45 78.0698C1427.93 76.7684 1424.54 76.2479 1423.5 77.3757Z" fill="black"/>
<path d="M1616.54 77.8072C1614.29 80.063 1616.02 83.8804 1619.06 83.0995C1621.14 82.4922 1621.32 78.0675 1619.32 77.2867C1617.58 76.5926 1617.76 76.5926 1616.54 77.8072Z" fill="black"/>
<path d="M1700.87 77.9815C1699.92 80.4975 1700.87 82.4062 1703.13 82.4062C1704.95 82.4062 1705.3 81.9725 1705.3 79.8035C1705.3 77.7212 1704.86 77.1139 1703.3 76.9404C1702.17 76.7669 1701.22 77.2007 1700.87 77.9815Z" fill="black"/>
<path d="M1722.56 78.8487C1721.61 81.3647 1722.56 83.2734 1724.82 83.2734C1726.64 83.2734 1726.99 82.8396 1726.99 80.6707C1726.99 78.5884 1726.55 77.9811 1724.99 77.8076C1723.86 77.6341 1722.91 78.0679 1722.56 78.8487Z" fill="black"/>
<path d="M1914.74 79.455C1913.87 81.1034 1913.95 81.624 1915.6 82.9254C1918.29 85.0944 1920.2 84.14 1919.85 80.7564C1919.51 77.286 1916.38 76.5052 1914.74 79.455Z" fill="black"/>
<path d="M1390.45 79.8943C1389.67 80.5883 1389.06 81.4559 1389.06 81.803C1389.15 85.0998 1394.53 85.4469 1394.96 82.2368C1395.31 79.634 1392.27 77.9856 1390.45 79.8943Z" fill="black"/>
<path d="M1278.61 79.8898C1277.57 80.9309 1277.92 83.4469 1279.22 84.488C1281.13 86.0497 1284.25 84.141 1283.91 81.7117C1283.65 79.803 1280 78.5884 1278.61 79.8898Z" fill="black"/>
<path d="M1366.68 82.5823C1365.2 85.4454 1367.11 88.2217 1370.15 87.3541C1372.66 86.7468 1371.97 81.628 1369.37 81.2809C1368.24 81.1074 1367.2 81.628 1366.68 82.5823Z" fill="black"/>
<path d="M1517.21 86.917C1515.3 88.7389 1517.21 92.3828 1520.07 92.3828C1521.37 92.3828 1522.76 89.1727 1522.15 87.6978C1521.63 86.3097 1518.25 85.7891 1517.21 86.917Z" fill="black"/>
<path d="M1560.32 88.4786C1559.46 90.6476 1560.67 92.3828 1562.93 92.3828C1565.53 92.3828 1566.4 91.2549 1565.62 88.9124C1564.92 86.8302 1561.02 86.4832 1560.32 88.4786Z" fill="black"/>
<path d="M1317.05 91.6004C1315.84 93.6826 1317.22 95.8516 1319.74 95.8516C1321.91 95.8516 1323.56 92.6415 1322.17 90.993C1320.7 89.2578 1318.09 89.5181 1317.05 91.6004Z" fill="black"/>
<path d="M1450.31 91.1697C1448.66 92.8181 1448.58 93.3387 1450.05 95.3342C1451.79 97.6767 1454.48 96.8091 1454.82 93.7725C1455.26 90.1286 1452.74 88.6537 1450.31 91.1697Z" fill="black"/>
<path d="M1484.5 91.0839C1482.93 92.9926 1484.41 95.4219 1487.18 95.4219C1488.92 95.4219 1489.27 94.9881 1489.27 92.8191C1489.27 90.8236 1488.83 90.1296 1487.44 89.956C1486.49 89.7825 1485.1 90.3031 1484.5 91.0839Z" fill="black"/>
<path d="M1591.64 92.4696C1590.77 95.0724 1593.2 97.5017 1595.37 96.2003C1596.15 95.6797 1596.85 94.2916 1596.85 93.1637C1596.85 90.2139 1592.51 89.6066 1591.64 92.4696Z" fill="black"/>
<path d="M1615.77 92.0379C1615.07 93.9466 1616.63 96.2891 1618.54 96.2891C1620.45 96.2891 1622.01 93.9466 1621.32 92.0379C1620.62 90.2159 1616.46 90.2159 1615.77 92.0379Z" fill="black"/>
<path d="M1816.18 92.0379C1815.49 93.9466 1817.05 96.2891 1819.04 96.2891C1820.26 96.2891 1820.78 95.595 1820.95 93.426C1821.21 90.91 1821.04 90.6497 1818.96 90.6497C1817.74 90.6497 1816.53 91.257 1816.18 92.0379Z" fill="black"/>
<path d="M1295.1 92.5581C1293.36 93.5124 1293.19 96.1152 1294.84 97.5034C1297.09 99.4121 1300.31 96.6358 1299.18 93.7727C1298.48 92.0375 1296.83 91.517 1295.1 92.5581Z" fill="black"/>
<path d="M1421.51 92.7315C1420.55 95.2475 1421.51 97.1562 1423.76 97.1562C1425.59 97.1562 1425.93 96.7225 1425.93 94.5535C1425.93 92.4712 1425.5 91.8639 1423.94 91.6904C1422.81 91.5169 1421.86 91.9507 1421.51 92.7315Z" fill="black"/>
<path d="M1723.69 92.5613C1720.91 94.0362 1722.48 98.4609 1725.77 98.4609C1727.51 98.4609 1728.55 96.292 1727.86 94.123C1727.25 92.1275 1725.51 91.5202 1723.69 92.5613Z" fill="black"/>
<path d="M1839.86 92.9127C1837.52 95.1685 1840.82 99.5932 1843.24 97.5977C1844.98 96.2096 1844.89 92.7392 1843.16 92.0451C1841.34 91.3511 1841.42 91.3511 1839.86 92.9127Z" fill="black"/>
<path d="M1697.06 94.1226C1695.67 96.7253 1696.8 99.3281 1699.23 99.3281C1702.09 99.3281 1703.31 95.2504 1700.96 93.5152C1698.8 91.9536 1698.19 92.0403 1697.06 94.1226Z" fill="black"/>
<path d="M1278.36 94.555C1277.14 97.7651 1280.61 100.541 1282.95 98.1989C1284.86 96.2902 1283.65 93.2536 1280.96 93.2536C1279.74 93.2536 1278.62 93.8609 1278.36 94.555Z" fill="black"/>
<path d="M1382.47 95.3331C1381.51 97.8491 1382.47 99.7578 1384.72 99.7578C1386.54 99.7578 1386.89 99.324 1386.89 97.155C1386.89 95.0728 1386.46 94.4655 1384.89 94.292C1383.77 94.1185 1382.81 94.5522 1382.47 95.3331Z" fill="black"/>
<path d="M1390.8 95.4222C1389.41 97.1574 1390.02 99.6734 1392.01 100.02C1394.36 100.541 1396.18 97.8514 1395.05 95.7692C1394.01 93.7737 1392.27 93.687 1390.8 95.4222Z" fill="black"/>
<path d="M1359.56 97.9425C1358.17 99.7645 1358.78 103.148 1360.69 103.495C1364.25 104.189 1366.24 99.3307 1363.12 97.5955C1360.95 96.4676 1360.86 96.4676 1359.56 97.9425Z" fill="black"/>
<path d="M1560.24 98.1082C1559.54 100.017 1561.11 102.359 1563.01 102.359C1564.92 102.359 1566.48 100.017 1565.79 98.1082C1565.1 96.2862 1560.93 96.2862 1560.24 98.1082Z" fill="black"/>
<path d="M1816.52 99.843C1815.48 100.884 1815.83 104.268 1817.13 105.309C1819.21 107.044 1821.21 105.482 1820.95 102.446C1820.77 100.537 1820.16 99.6695 1818.95 99.496C1817.91 99.3224 1816.87 99.496 1816.52 99.843Z" fill="black"/>
<path d="M1560.84 106.697C1559.28 108.519 1560.58 111.469 1563.01 111.469C1564.31 111.469 1565.27 110.861 1565.62 109.734C1566.22 107.738 1564.75 105.396 1563.01 105.396C1562.41 105.396 1561.45 106.003 1560.84 106.697Z" fill="black"/>
<path d="M1279.14 107.741C1277.75 108.262 1277.66 111.645 1279.05 113.034C1280.7 114.682 1282.26 114.248 1283.39 111.906C1284.86 108.609 1282.52 106.353 1279.14 107.741Z" fill="black"/>
<path d="M1421.25 108.356C1419.08 110.958 1421.94 114.689 1425.15 113.474C1427.24 112.694 1426.45 107.662 1424.11 107.315C1423.16 107.141 1421.86 107.662 1421.25 108.356Z" fill="black"/>
<path d="M1317.31 111.124C1316.62 113.032 1318.18 115.375 1320.09 115.375C1322 115.375 1323.56 113.032 1322.87 111.124C1322.17 109.302 1318.01 109.302 1317.31 111.124Z" fill="black"/>
<path d="M1308.37 119.192C1307.16 121.535 1308.2 123.617 1310.63 123.617C1312.1 123.617 1312.8 123.01 1313.23 121.535C1313.49 120.32 1313.49 118.932 1313.14 118.498C1312.28 116.937 1309.33 117.457 1308.37 119.192Z" fill="black"/>
<path d="M1318.35 119.887C1316.7 121.536 1316.96 123.531 1318.96 124.832C1321.04 126.134 1323.56 123.705 1322.78 121.189C1322 118.846 1320 118.239 1318.35 119.887Z" fill="black"/>
<path d="M908.937 1.72095C906.595 4.06345 907.896 6.83975 911.106 6.3192C912.755 6.14568 913.188 5.53836 913.188 3.45614C913.188 0.419556 911.106 -0.448038 908.937 1.72095Z" fill="black"/>
<path d="M777.147 1.80656C776.019 2.93443 776.539 6.57833 777.841 7.01212C779.663 7.79296 781.918 5.71073 781.571 3.54175C781.311 1.7198 778.361 0.591926 777.147 1.80656Z" fill="black"/>
<path d="M786.691 1.8958C785.65 2.85015 785.997 5.36617 787.211 6.40729C789.033 7.8822 791.636 5.53969 790.942 3.19719C790.335 1.37524 787.905 0.594406 786.691 1.8958Z" fill="black"/>
<path d="M796.233 1.80656C795.105 2.93443 795.625 6.57833 796.927 7.01212C798.749 7.79296 801.004 5.71073 800.657 3.54175C800.397 1.7198 797.447 0.591926 796.233 1.80656Z" fill="black"/>
<path d="M919.69 2.59157C918.215 4.32676 918.996 6.84278 921.078 7.18982C923.681 7.53686 925.243 5.36787 924.028 3.11213C922.9 0.943144 921.165 0.769625 919.69 2.59157Z" fill="black"/>
<path d="M931.232 2.41529C929.41 4.7578 929.237 5.53863 930.625 6.84002C932.273 8.57521 935.31 7.27382 935.31 4.7578C935.31 2.58881 932.36 0.853624 931.232 2.41529Z" fill="black"/>
<path d="M994.393 3.37214C992.658 5.45437 993.613 7.79688 996.042 7.79688C997.864 7.79688 998.211 7.36308 998.211 5.19409C998.211 2.24427 996.129 1.28992 994.393 3.37214Z" fill="black"/>
<path d="M654.642 4.84451C653.515 8.40165 658.46 10.3104 659.761 6.83998C660.542 4.84451 659.327 3.02256 657.245 3.02256C655.944 3.02256 654.99 3.71664 654.642 4.84451Z" fill="black"/>
<path d="M664.966 4.23933C664.099 6.49508 665.053 8.66406 666.788 8.66406C668.09 8.66406 668.61 7.96999 668.784 5.801C669.044 3.4585 668.784 3.0247 667.222 3.0247C666.268 3.0247 665.226 3.54526 664.966 4.23933Z" fill="black"/>
<path d="M673.819 4.40874C673.212 5.88365 674.6 9.09375 675.901 9.09375C677.289 9.09375 679.458 6.23069 679.024 5.01606C678.764 4.32198 678.504 3.54115 678.504 3.36763C678.504 2.32651 674.253 3.19411 673.819 4.40874Z" fill="black"/>
<path d="M683.706 4.32122C681.45 7.01077 685.267 10.4811 687.783 7.96512C689.432 6.31669 688.477 3.01983 686.395 3.01983C685.528 3.01983 684.313 3.62715 683.706 4.32122Z" fill="black"/>
<path d="M1004.89 3.80554C1004.2 4.15257 1003.85 5.45396 1004.02 6.58184C1004.2 8.14351 1004.81 8.66406 1006.45 8.66406C1008.28 8.66406 1008.62 8.23027 1008.62 6.06128C1008.62 3.37174 1006.97 2.41738 1004.89 3.80554Z" fill="black"/>
<path d="M1015.3 4.06327C1013.91 5.45142 1014 8.83504 1015.39 9.3556C1017.03 9.96291 1019.46 8.31448 1019.46 6.66605C1019.46 5.19114 1017.9 3.02216 1016.86 3.02216C1016.6 3.02216 1015.91 3.45596 1015.3 4.06327Z" fill="black"/>
<path d="M1026.58 4.93155C1023.98 7.53433 1026.67 11.3517 1029.44 9.096C1031.18 7.70785 1031.09 5.10507 1029.36 4.41099C1027.62 3.71692 1027.79 3.71692 1026.58 4.93155Z" fill="black"/>
<path d="M1036.56 5.27803C1036.21 5.62507 1035.95 6.8397 1035.95 7.96757C1035.95 9.78952 1036.3 10.0498 1038.38 9.78952C1040.2 9.616 1040.72 9.09544 1040.72 7.36025C1040.72 5.79858 1040.2 5.10451 1038.99 4.93099C1037.95 4.75747 1036.91 4.93099 1036.56 5.27803Z" fill="black"/>
<path d="M1046.45 5.89054C1044.98 7.71249 1046.19 10.1418 1048.45 9.79471C1049.75 9.62119 1050.27 8.92712 1050.27 7.36545C1050.27 4.93619 1048.01 4.06859 1046.45 5.89054Z" fill="black"/>
<path d="M1055.38 6.05676C1054.69 7.87871 1055.56 9.96094 1057.03 9.96094C1058.77 9.96094 1060.5 7.61843 1059.9 6.05676C1059.29 4.40833 1055.99 4.32157 1055.38 6.05676Z" fill="black"/>
<path d="M724.481 12.9972C723.179 14.5588 723.613 16.9013 725.522 18.116C727.778 19.5041 730.12 16.9013 729.339 13.9515C728.732 11.4355 726.216 10.9149 724.481 12.9972Z" fill="black"/>
<path d="M748.602 13.5249C745.219 15.4336 748.168 20.3789 751.552 18.5569C753.374 17.6026 753.634 15.1733 752.073 13.6116C750.858 12.397 750.511 12.397 748.602 13.5249Z" fill="black"/>
<path d="M874.748 13.6037C873.36 14.9919 873.447 16.4668 875.095 18.1152C877.091 20.1975 879.954 18.3755 879.607 15.3389C879.347 12.7362 876.57 11.7818 874.748 13.6037Z" fill="black"/>
<path d="M637.033 14.4737C634.43 17.0765 637.294 21.1542 640.504 19.419C643.106 18.0309 641.892 13.4326 639.029 13.4326C638.508 13.4326 637.641 13.8664 637.033 14.4737Z" fill="black"/>
<path d="M1175.2 15.1735C1173.98 16.5617 1173.9 17.0822 1174.76 18.2101C1177.19 21.1599 1181.44 18.5571 1179.36 15.347C1178.06 13.2648 1176.93 13.2648 1175.2 15.1735Z" fill="black"/>
<path d="M1186.22 15.3445C1184.83 16.7327 1184.92 20.1163 1186.3 20.6368C1187.95 21.2442 1190.38 19.5957 1190.38 17.9473C1190.38 16.4724 1188.82 14.3034 1187.78 14.3034C1187.52 14.3034 1186.82 14.7372 1186.22 15.3445Z" fill="black"/>
<path d="M1196.63 15.3468C1194.2 17.776 1196.89 22.5478 1199.49 20.3788C1200.18 19.7715 1200.79 18.6436 1200.79 17.8628C1200.79 16.3879 1199.23 14.3057 1198.19 14.3057C1197.93 14.3057 1197.23 14.7395 1196.63 15.3468Z" fill="black"/>
<path d="M841.954 19.9411C841.26 22.7174 842.474 24.1056 845.164 23.6718C846.812 23.4983 847.246 22.891 847.246 20.8087C847.246 18.6397 846.899 18.1192 844.904 17.9457C842.995 17.6854 842.388 18.1192 841.954 19.9411Z" fill="black"/>
<path d="M1057.73 18.9891C1056.95 19.9434 1056.86 20.7243 1057.64 22.0257C1059.29 25.149 1063.19 23.7609 1062.67 20.2905C1062.33 17.8612 1059.29 17.0804 1057.73 18.9891Z" fill="black"/>
<path d="M917.176 20.7196C915.527 22.7151 916.829 25.5781 919.345 25.5781C921.774 25.5781 922.989 23.4091 921.687 21.3269C920.473 19.4182 918.477 19.1579 917.176 20.7196Z" fill="black"/>
<path d="M950.143 21.07C949.536 22.2846 949.622 23.239 950.577 24.5404C952.399 27.2299 955.522 25.6682 955.088 22.2846C954.741 19.3348 951.531 18.554 950.143 21.07Z" fill="black"/>
<path d="M974.351 20.8136C972.703 22.8091 973.657 25.1516 976.26 25.4119C977.909 25.5854 978.689 25.2384 979.123 23.8502C980.164 20.4666 976.607 18.1241 974.351 20.8136Z" fill="black"/>
<path d="M808.204 22.111C806.295 24.1933 807.25 26.8828 809.939 26.8828C812.195 26.8828 813.67 24.1933 812.455 22.3713C811.067 20.2023 810.026 20.1156 808.204 22.111Z" fill="black"/>
<path d="M779.315 23.1536C777.927 24.5418 778.013 26.0167 779.662 27.6651C781.484 29.4871 784.347 28.0122 784.347 25.2359C784.347 22.3728 781.31 21.1582 779.315 23.1536Z" fill="black"/>
<path d="M652.038 27.4019C651.691 27.8357 651.691 29.2239 651.951 30.4385C652.385 32.087 652.992 32.5208 654.38 32.3472C656.636 32.0002 658.111 29.7445 657.417 27.8357C656.81 26.2741 652.906 25.927 652.038 27.4019Z" fill="black"/>
<path d="M675.03 27.748C673.469 29.6567 674.943 32.0859 677.72 32.0859C679.455 32.0859 679.802 31.6521 679.802 29.4832C679.802 27.4877 679.368 26.7936 677.98 26.6201C677.026 26.4466 675.638 26.9671 675.03 27.748Z" fill="black"/>
<path d="M637.033 28.0946C636.339 28.4416 635.992 29.743 636.165 30.8709C636.339 32.5193 636.946 32.9531 639.028 32.9531C641.891 32.9531 642.933 30.7841 641.197 28.6152C639.983 27.1402 638.681 26.9667 637.033 28.0946Z" fill="black"/>
<path d="M740.534 28.1851C739.493 29.9202 740.881 33.3906 742.617 33.3906C745.046 33.3906 746.694 30.9614 745.566 29.2262C744.525 27.491 741.402 26.7969 740.534 28.1851Z" fill="black"/>
<path d="M749.122 28.5284C748.168 31.0444 749.122 32.9531 751.378 32.9531C753.2 32.9531 753.547 32.5193 753.547 30.3503C753.547 28.2681 753.113 27.6608 751.551 27.4873C750.423 27.3138 749.469 27.7476 749.122 28.5284Z" fill="black"/>
<path d="M1172.77 27.9202C1171.55 29.0481 1172.16 31.6509 1173.81 32.5185C1175.81 33.5596 1178.67 31.3039 1177.89 29.3084C1177.63 28.6143 1177.37 27.8335 1177.37 27.66C1177.37 27.0527 1173.38 27.2262 1172.77 27.9202Z" fill="black"/>
<path d="M717.284 30.0042C715.288 31.1321 715.375 33.9951 717.457 35.123C719.366 36.0774 721.882 34.3422 721.882 32.0864C721.882 30.2645 719.106 29.0498 717.284 30.0042Z" fill="black"/>
<path d="M1197.58 29.6575C1196.02 30.2649 1196.19 33.822 1197.75 35.1234C1199.49 36.5115 1201.66 34.8631 1201.66 32.0868C1201.66 30.5251 1199.75 28.6164 1198.79 29.137C1198.71 29.137 1198.1 29.3973 1197.58 29.6575Z" fill="black"/>
<path d="M1219.18 31.5733C1217.36 32.7012 1218.23 36.3451 1220.48 36.6921C1222.91 37.0391 1224.82 33.9158 1223.26 32.0071C1222.13 30.6189 1220.83 30.4454 1219.18 31.5733Z" fill="black"/>
<path d="M871.191 35.4696C869.543 37.4651 870.844 40.3281 873.36 40.3281C875.79 40.3281 877.004 38.1591 875.703 36.0769C874.488 34.1682 872.493 33.9079 871.191 35.4696Z" fill="black"/>
<path d="M1055.04 37.2948C1053.48 39.2035 1054.34 41.6328 1056.69 41.6328C1059.46 41.6328 1060.94 39.2035 1059.46 37.3816C1057.99 35.6464 1056.43 35.6464 1055.04 37.2948Z" fill="black"/>
<path d="M916.83 37.3821C914.661 39.5511 917.524 43.4552 920.56 42.5009C923.337 41.6333 922.643 37.3821 919.693 37.035C918.478 36.8615 917.177 37.035 916.83 37.3821Z" fill="black"/>
<path d="M841.954 38.9381C841.087 41.1938 842.041 43.3628 844.036 43.6231C846.292 43.9701 848.114 40.6733 846.639 38.7645C845.424 37.3764 842.561 37.4632 841.954 38.9381Z" fill="black"/>
<path d="M947.631 38.7723C946.069 40.3339 946.416 42.7632 948.238 43.8043C950.234 44.8454 952.663 42.9367 952.663 40.3339C952.663 37.9914 949.453 36.9503 947.631 38.7723Z" fill="black"/>
<path d="M1080.71 38.8543C1078.46 40.5027 1080.28 44.9275 1083.06 44.4937C1085.23 44.2334 1086.09 40.9365 1084.53 38.9411C1083.23 37.4662 1082.71 37.3794 1080.71 38.8543Z" fill="black"/>
<path d="M927.848 39.8909C926.634 43.101 930.104 45.8773 932.447 43.5348C934.355 41.6261 933.141 38.5896 930.451 38.5896C929.236 38.5896 928.109 39.1969 927.848 39.8909Z" fill="black"/>
<path d="M636.595 40.0717C635.294 41.3731 636.075 44.5832 637.81 45.1037C640.239 45.8846 642.408 43.7156 641.627 41.2863C641.107 39.5511 637.896 38.7703 636.595 40.0717Z" fill="black"/>
<path d="M808.468 40.4162C806.56 41.4573 806.473 43.2792 808.208 45.0144C810.811 47.5304 814.368 43.5395 812.112 40.7632C810.898 39.2883 810.464 39.2015 808.468 40.4162Z" fill="black"/>
<path d="M778.882 42.6751C776.973 44.5838 779.489 48.5748 782.005 47.6204C783.827 46.9264 784.608 44.6706 783.394 43.2825C782.353 41.9811 779.836 41.634 778.882 42.6751Z" fill="black"/>
<path d="M747.91 52.0448C745.655 54.7344 749.038 59.1591 751.728 56.9034C753.376 55.5152 753.55 53.2595 752.075 51.7846C750.687 50.3964 749.212 50.4832 747.91 52.0448Z" fill="black"/>
<path d="M716.849 52.3898C716.155 52.7368 715.808 54.0382 715.982 55.1661C716.329 57.6821 719.886 58.1159 721.274 55.7734C722.922 53.1706 719.626 50.5678 716.849 52.3898Z" fill="black"/>
<path d="M828.598 53.3432C827.123 54.8181 827.036 55.3387 827.904 56.8136C829.292 58.9826 831.721 59.0694 832.936 56.9004C834.237 54.4711 834.064 53.5167 832.068 52.4756C830.767 51.7816 829.986 51.9551 828.598 53.3432Z" fill="black"/>
<path d="M1219.18 52.3914C1217.36 53.5192 1218.23 57.1631 1220.4 57.5102C1222.74 57.8572 1224.48 55.6882 1223.78 53.3457C1223.17 51.5238 1221.18 51.09 1219.18 52.3914Z" fill="black"/>
<path d="M770.64 53.2601C768.818 54.388 769.686 58.0319 771.941 58.3789C774.197 58.726 775.498 55.6894 773.937 53.7807C772.722 52.3058 772.202 52.219 770.64 53.2601Z" fill="black"/>
<path d="M780.878 53.7792C779.229 55.7747 780.184 58.1172 782.613 58.1172C784.001 58.1172 784.869 57.5966 785.042 56.5555C785.389 54.9938 783.828 52.4778 782.613 52.4778C782.266 52.4778 781.485 53.0851 780.878 53.7792Z" fill="black"/>
<path d="M793.023 55.0838C793.023 57.5131 793.284 57.7733 795.453 57.5131C797.275 57.3395 797.795 56.819 797.795 55.0838C797.795 53.3486 797.275 52.8281 795.453 52.6545C793.284 52.3943 793.023 52.6545 793.023 55.0838Z" fill="black"/>
<path d="M805.169 53.6904C802.826 56.5534 806.731 59.9371 809.333 57.3343C810.461 56.2064 810.548 55.5991 809.854 54.3845C808.553 52.389 806.557 52.1287 805.169 53.6904Z" fill="black"/>
<path d="M815.927 53.6925C814.972 56.2085 815.927 58.1172 818.182 58.1172C820.004 58.1172 820.351 57.6834 820.351 55.5144C820.351 53.4322 819.918 52.8249 818.356 52.6513C817.228 52.4778 816.274 52.9116 815.927 53.6925Z" fill="black"/>
<path d="M839.787 53.867C838.398 55.6022 839.7 58.0314 842.303 58.3785C843.691 58.552 844.298 58.1182 844.732 56.4698C844.992 55.2551 844.992 53.867 844.645 53.4332C843.864 52.045 841.088 52.3053 839.787 53.867Z" fill="black"/>
<path d="M850.807 54.0376C849.939 56.6404 851.154 58.6359 853.236 58.3756C855.925 58.0285 855.839 52.9965 853.149 52.6495C851.935 52.4759 851.154 52.9097 850.807 54.0376Z" fill="black"/>
<path d="M862.17 53.0019C861.042 54.1297 861.563 57.7736 862.864 58.2074C864.686 58.9883 866.942 56.906 866.595 54.7371C866.335 52.9151 863.385 51.7872 862.17 53.0019Z" fill="black"/>
<path d="M875.359 54.2995C874.491 56.0347 874.578 56.4685 876.313 57.8566C878.743 59.8521 880.825 58.4639 880.478 55.1671C880.131 52.1305 876.834 51.6099 875.359 54.2995Z" fill="black"/>
<path d="M962.81 53.0819C961.855 53.9495 962.116 57.5066 963.07 58.1139C964.805 59.155 967.408 57.5934 967.408 55.5111C967.408 53.1686 964.371 51.5202 962.81 53.0819Z" fill="black"/>
<path d="M973.654 53.5125C972.093 55.0742 972.353 57.5034 974.175 58.4578C976.431 59.6724 977.992 58.2843 977.645 55.4212C977.385 52.7317 975.39 51.7773 973.654 53.5125Z" fill="black"/>
<path d="M1055.04 53.7792C1052.78 56.4688 1056.17 60.8935 1058.86 58.6377C1060.51 57.2496 1060.68 54.9938 1059.2 53.5189C1057.82 52.1308 1056.34 52.2175 1055.04 53.7792Z" fill="black"/>
<path d="M1168.43 53.0019C1167.3 54.1297 1167.82 57.7736 1169.13 58.2074C1170.95 58.9883 1173.2 56.906 1172.86 54.7371C1172.6 52.9151 1169.65 51.7872 1168.43 53.0019Z" fill="black"/>
<path d="M1176.94 53.4281C1175.9 55.0765 1177.28 58.5469 1179.02 58.5469C1181.36 58.5469 1182.49 56.7249 1181.62 54.3824C1180.84 52.387 1177.89 51.7796 1176.94 53.4281Z" fill="black"/>
<path d="M1196.8 53.7755C1196.19 55.2504 1197.84 57.6797 1199.4 57.6797C1201.14 57.6797 1202.35 55.9445 1201.92 54.1226C1201.4 52.1271 1197.49 51.8668 1196.8 53.7755Z" fill="black"/>
<path d="M916.83 53.9509C916.483 54.2112 916.223 55.339 916.223 56.4669C916.223 59.1564 918.739 59.8505 920.908 57.7683C922.296 56.2934 922.383 55.8596 921.428 54.7317C920.3 53.3436 917.784 52.9098 916.83 53.9509Z" fill="black"/>
<path d="M947.627 54.4659C947.106 55.0732 946.846 56.4614 947.193 57.5025C947.887 60.2788 951.618 60.1053 952.312 57.329C952.572 56.1144 952.572 54.7262 952.225 54.2924C951.444 52.991 948.755 53.0778 947.627 54.4659Z" fill="black"/>
<path d="M1080.46 53.952C1079.15 54.4726 1078.98 59.0708 1080.2 59.8517C1080.72 60.1119 1081.84 60.1119 1082.8 59.8517C1084.71 59.2444 1085.14 56.0343 1083.49 54.3858C1082.36 53.2579 1082.1 53.2579 1080.46 53.952Z" fill="black"/>
<path d="M875.445 72.8683C873.797 74.8638 874.751 77.2063 877.354 77.4666C879.002 77.6401 879.783 77.2931 880.217 75.9049C881.258 72.5213 877.701 70.1788 875.445 72.8683Z" fill="black"/>
<path d="M923.25 73.6452C921.428 75.8142 922.382 78.9375 924.811 78.9375C927.501 78.9375 929.149 76.5082 927.848 74.3393C926.547 72.3438 924.551 72.0835 923.25 73.6452Z" fill="black"/>
<path d="M842.563 74.5149C841.001 76.4236 842.91 79.547 845.339 79.1999C848.029 78.8529 848.115 73.8208 845.426 73.4738C844.471 73.3003 843.17 73.8208 842.563 74.5149Z" fill="black"/>
<path d="M809.159 75.8108C807.944 77.199 807.857 77.8063 808.638 79.368C809.766 81.4502 811.935 81.3635 813.323 79.1077C814.017 78.0666 814.017 77.199 813.323 76.1579C812.022 73.9889 810.894 73.9021 809.159 75.8108Z" fill="black"/>
<path d="M950.147 76.2471C948.412 78.3294 949.367 80.6719 951.796 80.6719C953.618 80.6719 953.965 80.2381 953.965 78.0691C953.965 75.1193 951.883 74.1649 950.147 76.2471Z" fill="black"/>
<path d="M1178.41 76.9418C1176.15 79.1975 1178.23 83.4487 1181.1 82.3209C1183.01 81.6268 1183.61 79.5446 1182.57 77.5491C1181.53 75.6404 1179.97 75.3801 1178.41 76.9418Z" fill="black"/>
<path d="M1197.32 77.5475C1196.19 79.7165 1196.19 79.89 1197.84 81.4517C1199.49 83.1869 1202.53 81.8855 1202.53 79.543C1202.53 76.0726 1198.88 74.7712 1197.32 77.5475Z" fill="black"/>
<path d="M781.482 77.3757C780.441 78.3301 780.788 80.8461 782.089 81.8872C784.345 83.7959 787.555 81.0196 786.427 78.0698C785.907 76.7684 782.523 76.2479 781.482 77.3757Z" fill="black"/>
<path d="M974.524 77.8072C972.268 80.063 974.003 83.8804 977.04 83.0995C979.122 82.4922 979.296 78.0675 977.3 77.2867C975.565 76.5926 975.738 76.5926 974.524 77.8072Z" fill="black"/>
<path d="M1058.85 77.9815C1057.9 80.4975 1058.85 82.4062 1061.11 82.4062C1062.93 82.4062 1063.28 81.9725 1063.28 79.8035C1063.28 77.7212 1062.84 77.1139 1061.28 76.9404C1060.15 76.7669 1059.2 77.2007 1058.85 77.9815Z" fill="black"/>
<path d="M1080.54 78.8487C1079.59 81.3647 1080.54 83.2734 1082.8 83.2734C1084.62 83.2734 1084.97 82.8396 1084.97 80.6707C1084.97 78.5884 1084.53 77.9811 1082.97 77.8076C1081.85 77.6341 1080.89 78.0679 1080.54 78.8487Z" fill="black"/>
<path d="M1272.72 79.455C1271.85 81.1034 1271.94 81.624 1273.58 82.9254C1276.27 85.0944 1278.18 84.14 1277.83 80.7564C1277.49 77.286 1274.36 76.5052 1272.72 79.455Z" fill="black"/>
<path d="M748.431 79.8943C747.65 80.5883 747.043 81.4559 747.043 81.803C747.13 85.0998 752.509 85.4469 752.943 82.2368C753.29 79.634 750.253 77.9856 748.431 79.8943Z" fill="black"/>
<path d="M636.595 79.8898C635.554 80.9309 635.901 83.4469 637.202 84.488C639.111 86.0497 642.235 84.141 641.887 81.7117C641.627 79.803 637.983 78.5884 636.595 79.8898Z" fill="black"/>
<path d="M724.657 82.5823C723.182 85.4454 725.091 88.2217 728.127 87.3541C730.643 86.7468 729.949 81.628 727.347 81.2809C726.219 81.1074 725.178 81.628 724.657 82.5823Z" fill="black"/>
<path d="M875.186 86.917C873.278 88.7389 875.186 92.3828 878.049 92.3828C879.351 92.3828 880.739 89.1727 880.132 87.6978C879.611 86.3097 876.227 85.7891 875.186 86.917Z" fill="black"/>
<path d="M918.305 88.4786C917.437 90.6476 918.652 92.3828 920.908 92.3828C923.51 92.3828 924.378 91.2549 923.597 88.9124C922.903 86.8302 918.999 86.4832 918.305 88.4786Z" fill="black"/>
<path d="M675.032 91.6004C673.817 93.6826 675.205 95.8516 677.721 95.8516C679.89 95.8516 681.539 92.6415 680.151 90.993C678.676 89.2578 676.073 89.5181 675.032 91.6004Z" fill="black"/>
<path d="M808.293 91.1697C806.645 92.8181 806.558 93.3387 808.033 95.3342C809.768 97.6767 812.458 96.8091 812.805 93.7725C813.239 90.1286 810.723 88.6537 808.293 91.1697Z" fill="black"/>
<path d="M842.476 91.0839C840.914 92.9926 842.389 95.4219 845.165 95.4219C846.9 95.4219 847.247 94.9881 847.247 92.8191C847.247 90.8236 846.814 90.1296 845.425 89.956C844.471 89.7825 843.083 90.3031 842.476 91.0839Z" fill="black"/>
<path d="M949.622 92.4696C948.754 95.0724 951.183 97.5017 953.352 96.2003C954.133 95.6797 954.827 94.2916 954.827 93.1637C954.827 90.2139 950.489 89.6066 949.622 92.4696Z" fill="black"/>
<path d="M973.746 92.0379C973.052 93.9466 974.614 96.2891 976.522 96.2891C978.431 96.2891 979.993 93.9466 979.299 92.0379C978.605 90.2159 974.44 90.2159 973.746 92.0379Z" fill="black"/>
<path d="M1174.16 92.0379C1173.47 93.9466 1175.03 96.2891 1177.02 96.2891C1178.24 96.2891 1178.76 95.595 1178.93 93.426C1179.19 90.91 1179.02 90.6497 1176.94 90.6497C1175.72 90.6497 1174.51 91.257 1174.16 92.0379Z" fill="black"/>
<path d="M653.08 92.5581C651.345 93.5124 651.171 96.1152 652.82 97.5034C655.075 99.4121 658.286 96.6358 657.158 93.7727C656.464 92.0375 654.815 91.517 653.08 92.5581Z" fill="black"/>
<path d="M779.489 92.7315C778.535 95.2475 779.489 97.1562 781.745 97.1562C783.567 97.1562 783.914 96.7225 783.914 94.5535C783.914 92.4712 783.48 91.8639 781.918 91.6904C780.79 91.5169 779.836 91.9507 779.489 92.7315Z" fill="black"/>
<path d="M1081.67 92.5613C1078.9 94.0362 1080.46 98.4609 1083.75 98.4609C1085.49 98.4609 1086.53 96.292 1085.84 94.123C1085.23 92.1275 1083.49 91.5202 1081.67 92.5613Z" fill="black"/>
<path d="M1197.84 92.9127C1195.5 95.1685 1198.8 99.5932 1201.22 97.5977C1202.96 96.2096 1202.87 92.7392 1201.14 92.0451C1199.32 91.3511 1199.4 91.3511 1197.84 92.9127Z" fill="black"/>
<path d="M1055.04 94.1226C1053.65 96.7253 1054.78 99.3281 1057.21 99.3281C1060.07 99.3281 1061.28 95.2504 1058.94 93.5152C1056.77 91.9536 1056.16 92.0403 1055.04 94.1226Z" fill="black"/>
<path d="M636.337 94.555C635.122 97.7651 638.592 100.541 640.935 98.1989C642.844 96.2902 641.629 93.2536 638.939 93.2536C637.725 93.2536 636.597 93.8609 636.337 94.555Z" fill="black"/>
<path d="M740.446 95.3331C739.492 97.8491 740.446 99.7578 742.702 99.7578C744.524 99.7578 744.871 99.324 744.871 97.155C744.871 95.0728 744.437 94.4655 742.875 94.292C741.748 94.1185 740.793 94.5522 740.446 95.3331Z" fill="black"/>
<path d="M748.779 95.4222C747.391 97.1574 747.999 99.6734 749.994 100.02C752.337 100.541 754.159 97.8514 753.031 95.7692C751.99 93.7737 750.254 93.687 748.779 95.4222Z" fill="black"/>
<path d="M717.542 97.9425C716.153 99.7645 716.761 103.148 718.67 103.495C722.227 104.189 724.222 99.3307 721.099 97.5955C718.93 96.4676 718.843 96.4676 717.542 97.9425Z" fill="black"/>
<path d="M918.219 98.1082C917.525 100.017 919.086 102.359 920.995 102.359C922.904 102.359 924.465 100.017 923.771 98.1082C923.077 96.2862 918.913 96.2862 918.219 98.1082Z" fill="black"/>
<path d="M1174.5 99.843C1173.46 100.884 1173.81 104.268 1175.11 105.309C1177.19 107.044 1179.19 105.482 1178.93 102.446C1178.75 100.537 1178.15 99.6695 1176.93 99.496C1175.89 99.3224 1174.85 99.496 1174.5 99.843Z" fill="black"/>
<path d="M918.824 106.697C917.262 108.519 918.564 111.469 920.993 111.469C922.294 111.469 923.249 110.861 923.596 109.734C924.203 107.738 922.728 105.396 920.993 105.396C920.386 105.396 919.431 106.003 918.824 106.697Z" fill="black"/>
<path d="M637.117 107.741C635.729 108.262 635.642 111.645 637.03 113.034C638.678 114.682 640.24 114.248 641.368 111.906C642.843 108.609 640.5 106.353 637.117 107.741Z" fill="black"/>
<path d="M779.23 108.356C777.061 110.958 779.924 114.689 783.134 113.474C785.216 112.694 784.435 107.662 782.093 107.315C781.138 107.141 779.837 107.662 779.23 108.356Z" fill="black"/>
<path d="M675.293 111.124C674.599 113.032 676.16 115.375 678.069 115.375C679.978 115.375 681.54 113.032 680.846 111.124C680.151 109.302 675.987 109.302 675.293 111.124Z" fill="black"/>
<path d="M666.353 119.192C665.138 121.535 666.179 123.617 668.608 123.617C670.083 123.617 670.777 123.01 671.211 121.535C671.471 120.32 671.471 118.932 671.124 118.498C670.257 116.937 667.307 117.457 666.353 119.192Z" fill="black"/>
<path d="M676.332 119.887C674.684 121.536 674.944 123.531 676.939 124.832C679.022 126.134 681.538 123.705 680.757 121.189C679.976 118.846 677.981 118.239 676.332 119.887Z" fill="black"/>
<path d="M272.988 1.72095C270.645 4.06345 271.947 6.83975 275.157 6.3192C276.805 6.14568 277.239 5.53836 277.239 3.45614C277.239 0.419556 275.157 -0.448038 272.988 1.72095Z" fill="black"/>
<path d="M141.201 1.80656C140.073 2.93443 140.594 6.57833 141.895 7.01212C143.717 7.79296 145.973 5.71073 145.626 3.54175C145.366 1.7198 142.416 0.591926 141.201 1.80656Z" fill="black"/>
<path d="M150.745 1.8958C149.704 2.85015 150.051 5.36617 151.266 6.40729C153.088 7.8822 155.691 5.53969 154.997 3.19719C154.389 1.37524 151.96 0.594406 150.745 1.8958Z" fill="black"/>
<path d="M160.287 1.80656C159.159 2.93443 159.68 6.57833 160.981 7.01212C162.803 7.79296 165.059 5.71073 164.712 3.54175C164.452 1.7198 161.502 0.591926 160.287 1.80656Z" fill="black"/>
<path d="M283.745 2.59157C282.27 4.32676 283.051 6.84278 285.133 7.18982C287.736 7.53686 289.298 5.36787 288.083 3.11213C286.955 0.943144 285.22 0.769625 283.745 2.59157Z" fill="black"/>
<path d="M295.283 2.41529C293.461 4.7578 293.288 5.53863 294.676 6.84002C296.324 8.57521 299.361 7.27382 299.361 4.7578C299.361 2.58881 296.411 0.853624 295.283 2.41529Z" fill="black"/>
<path d="M358.448 3.37214C356.713 5.45437 357.667 7.79688 360.097 7.79688C361.918 7.79688 362.266 7.36308 362.266 5.19409C362.266 2.24427 360.183 1.28992 358.448 3.37214Z" fill="black"/>
<path d="M18.6971 4.84451C17.5693 8.40165 22.5146 10.3104 23.816 6.83998C24.5968 4.84451 23.3822 3.02256 21.2999 3.02256C19.9985 3.02256 19.0442 3.71664 18.6971 4.84451Z" fill="black"/>
<path d="M29.0209 4.23933C28.1533 6.49508 29.1076 8.66406 30.8428 8.66406C32.1442 8.66406 32.6648 7.96999 32.8383 5.801C33.0986 3.4585 32.8383 3.0247 31.2766 3.0247C30.3223 3.0247 29.2812 3.54526 29.0209 4.23933Z" fill="black"/>
<path d="M37.8697 4.40874C37.2623 5.88365 38.6505 9.09375 39.9519 9.09375C41.34 9.09375 43.509 6.23069 43.0752 5.01606C42.815 4.32198 42.5547 3.54115 42.5547 3.36763C42.5547 2.32651 38.3035 3.19411 37.8697 4.40874Z" fill="black"/>
<path d="M47.7603 4.32122C45.5046 7.01077 49.322 10.4811 51.838 7.96512C53.4864 6.31669 52.5321 3.01983 50.4498 3.01983C49.5823 3.01983 48.3676 3.62715 47.7603 4.32122Z" fill="black"/>
<path d="M368.943 3.80554C368.249 4.15257 367.902 5.45396 368.075 6.58184C368.249 8.14351 368.856 8.66406 370.505 8.66406C372.327 8.66406 372.674 8.23027 372.674 6.06128C372.674 3.37174 371.025 2.41738 368.943 3.80554Z" fill="black"/>
<path d="M379.354 4.06327C377.966 5.45142 378.053 8.83504 379.441 9.3556C381.089 9.96291 383.519 8.31448 383.519 6.66605C383.519 5.19114 381.957 3.02216 380.916 3.02216C380.656 3.02216 379.962 3.45596 379.354 4.06327Z" fill="black"/>
<path d="M390.634 4.93155C388.032 7.53433 390.721 11.3517 393.497 9.096C395.233 7.70785 395.146 5.10507 393.411 4.41099C391.676 3.71692 391.849 3.71692 390.634 4.93155Z" fill="black"/>
<path d="M400.611 5.27803C400.264 5.62507 400.004 6.8397 400.004 7.96757C400.004 9.78952 400.351 10.0498 402.433 9.78952C404.255 9.616 404.776 9.09544 404.776 7.36025C404.776 5.79858 404.255 5.10451 403.04 4.93099C401.999 4.75747 400.958 4.93099 400.611 5.27803Z" fill="black"/>
<path d="M410.501 5.89054C409.026 7.71249 410.241 10.1418 412.497 9.79471C413.798 9.62119 414.319 8.92712 414.319 7.36545C414.319 4.93619 412.063 4.06859 410.501 5.89054Z" fill="black"/>
<path d="M419.438 6.05676C418.744 7.87871 419.612 9.96094 421.087 9.96094C422.822 9.96094 424.557 7.61843 423.95 6.05676C423.343 4.40833 420.046 4.32157 419.438 6.05676Z" fill="black"/>
<path d="M88.5354 12.9972C87.234 14.5588 87.6678 16.9013 89.5765 18.116C91.8323 19.5041 94.1748 16.9013 93.394 13.9515C92.7866 11.4355 90.2706 10.9149 88.5354 12.9972Z" fill="black"/>
<path d="M112.657 13.5249C109.273 15.4336 112.223 20.3789 115.607 18.5569C117.429 17.6026 117.689 15.1733 116.127 13.6116C114.913 12.397 114.566 12.397 112.657 13.5249Z" fill="black"/>
<path d="M238.803 13.6037C237.415 14.9919 237.502 16.4668 239.15 18.1152C241.146 20.1975 244.009 18.3755 243.662 15.3389C243.401 12.7362 240.625 11.7818 238.803 13.6037Z" fill="black"/>
<path d="M1.08405 14.4737C-1.51873 17.0765 1.34433 21.1542 4.55443 19.419C7.15721 18.0309 5.94258 13.4326 3.07952 13.4326C2.55896 13.4326 1.69137 13.8664 1.08405 14.4737Z" fill="black"/>
<path d="M539.252 15.1735C538.038 16.5617 537.951 17.0822 538.818 18.2101C541.248 21.1599 545.499 18.5571 543.417 15.347C542.115 13.2648 540.987 13.2648 539.252 15.1735Z" fill="black"/>
<path d="M550.272 15.3445C548.884 16.7327 548.971 20.1163 550.359 20.6368C552.007 21.2442 554.437 19.5957 554.437 17.9473C554.437 16.4724 552.875 14.3034 551.834 14.3034C551.574 14.3034 550.88 14.7372 550.272 15.3445Z" fill="black"/>
<path d="M560.682 15.3468C558.252 17.776 560.942 22.5478 563.545 20.3788C564.239 19.7715 564.846 18.6436 564.846 17.8628C564.846 16.3879 563.284 14.3057 562.243 14.3057C561.983 14.3057 561.289 14.7395 560.682 15.3468Z" fill="black"/>
<path d="M206.008 19.9411C205.314 22.7174 206.529 24.1056 209.218 23.6718C210.867 23.4983 211.301 22.891 211.301 20.8087C211.301 18.6397 210.954 18.1192 208.958 17.9457C207.05 17.6854 206.442 18.1192 206.008 19.9411Z" fill="black"/>
<path d="M421.779 18.9891C420.998 19.9434 420.912 20.7243 421.692 22.0257C423.341 25.149 427.245 23.7609 426.725 20.2905C426.377 17.8612 423.341 17.0804 421.779 18.9891Z" fill="black"/>
<path d="M281.227 20.7196C279.578 22.7151 280.88 25.5781 283.396 25.5781C285.825 25.5781 287.039 23.4091 285.738 21.3269C284.523 19.4182 282.528 19.1579 281.227 20.7196Z" fill="black"/>
<path d="M314.198 21.07C313.59 22.2846 313.677 23.239 314.631 24.5404C316.453 27.2299 319.577 25.6682 319.143 22.2846C318.796 19.3348 315.586 18.554 314.198 21.07Z" fill="black"/>
<path d="M338.406 20.8136C336.758 22.8091 337.712 25.1516 340.315 25.4119C341.963 25.5854 342.744 25.2384 343.178 23.8502C344.219 20.4666 340.662 18.1241 338.406 20.8136Z" fill="black"/>
<path d="M172.259 22.111C170.35 24.1933 171.304 26.8828 173.994 26.8828C176.25 26.8828 177.725 24.1933 176.51 22.3713C175.122 20.2023 174.081 20.1156 172.259 22.111Z" fill="black"/>
<path d="M143.369 23.1536C141.981 24.5418 142.068 26.0167 143.716 27.6651C145.538 29.4871 148.401 28.0122 148.401 25.2359C148.401 22.3728 145.365 21.1582 143.369 23.1536Z" fill="black"/>
<path d="M16.0926 27.4019C15.7456 27.8357 15.7456 29.2239 16.0058 30.4385C16.4396 32.087 17.047 32.5208 18.4351 32.3472C20.6909 32.0002 22.1658 29.7445 21.4717 27.8357C20.8644 26.2741 16.9602 25.927 16.0926 27.4019Z" fill="black"/>
<path d="M39.0849 27.748C37.5232 29.6567 38.9982 32.0859 41.7745 32.0859C43.5096 32.0859 43.8567 31.6521 43.8567 29.4832C43.8567 27.4877 43.4229 26.7936 42.0347 26.6201C41.0804 26.4466 39.6922 26.9671 39.0849 27.748Z" fill="black"/>
<path d="M1.08369 28.0946C0.389612 28.4416 0.0425747 29.743 0.216094 30.8709C0.389612 32.5193 0.996928 32.9531 3.07915 32.9531C5.94222 32.9531 6.98333 30.7841 5.24814 28.6152C4.03351 27.1402 2.73212 26.9667 1.08369 28.0946Z" fill="black"/>
<path d="M104.589 28.1851C103.548 29.9202 104.936 33.3906 106.671 33.3906C109.101 33.3906 110.749 30.9614 109.621 29.2262C108.58 27.491 105.457 26.7969 104.589 28.1851Z" fill="black"/>
<path d="M113.177 28.5284C112.222 31.0444 113.177 32.9531 115.432 32.9531C117.254 32.9531 117.601 32.5193 117.601 30.3503C117.601 28.2681 117.168 27.6608 115.606 27.4873C114.478 27.3138 113.524 27.7476 113.177 28.5284Z" fill="black"/>
<path d="M536.823 27.9202C535.609 29.0481 536.216 31.6509 537.865 32.5185C539.86 33.5596 542.723 31.3039 541.942 29.3084C541.682 28.6143 541.422 27.8335 541.422 27.66C541.422 27.0527 537.431 27.2262 536.823 27.9202Z" fill="black"/>
<path d="M81.3385 30.0042C79.343 31.1321 79.4298 33.9951 81.512 35.123C83.4207 36.0774 85.9367 34.3422 85.9367 32.0864C85.9367 30.2645 83.1604 29.0498 81.3385 30.0042Z" fill="black"/>
<path d="M561.635 29.6575C560.073 30.2649 560.247 33.822 561.808 35.1234C563.544 36.5115 565.713 34.8631 565.713 32.0868C565.713 30.5251 563.804 28.6164 562.85 29.137C562.763 29.137 562.156 29.3973 561.635 29.6575Z" fill="black"/>
<path d="M583.238 31.5733C581.416 32.7012 582.283 36.3451 584.539 36.6921C586.968 37.0391 588.877 33.9158 587.315 32.0071C586.187 30.6189 584.886 30.4454 583.238 31.5733Z" fill="black"/>
<path d="M235.246 35.4696C233.598 37.4651 234.899 40.3281 237.415 40.3281C239.844 40.3281 241.059 38.1591 239.758 36.0769C238.543 34.1682 236.547 33.9079 235.246 35.4696Z" fill="black"/>
<path d="M419.089 37.2948C417.527 39.2035 418.395 41.6328 420.737 41.6328C423.514 41.6328 424.989 39.2035 423.514 37.3816C422.039 35.6464 420.477 35.6464 419.089 37.2948Z" fill="black"/>
<path d="M280.885 37.3821C278.716 39.5511 281.579 43.4552 284.615 42.5009C287.391 41.6333 286.697 37.3821 283.748 37.035C282.533 36.8615 281.232 37.035 280.885 37.3821Z" fill="black"/>
<path d="M206.009 38.9381C205.141 41.1938 206.096 43.3628 208.091 43.6231C210.347 43.9701 212.169 40.6733 210.694 38.7645C209.479 37.3764 206.616 37.4632 206.009 38.9381Z" fill="black"/>
<path d="M311.686 38.7723C310.124 40.3339 310.471 42.7632 312.293 43.8043C314.288 44.8454 316.718 42.9367 316.718 40.3339C316.718 37.9914 313.508 36.9503 311.686 38.7723Z" fill="black"/>
<path d="M444.769 38.8543C442.514 40.5027 444.336 44.9275 447.112 44.4937C449.281 44.2334 450.148 40.9365 448.587 38.9411C447.285 37.4662 446.765 37.3794 444.769 38.8543Z" fill="black"/>
<path d="M291.903 39.8909C290.688 43.101 294.159 45.8773 296.501 43.5348C298.41 41.6261 297.195 38.5896 294.506 38.5896C293.291 38.5896 292.163 39.1969 291.903 39.8909Z" fill="black"/>
<path d="M0.649744 40.0717C-0.651647 41.3731 0.129188 44.5832 1.86438 45.1037C4.29364 45.8846 6.46263 43.7156 5.68179 41.2863C5.16123 39.5511 1.95114 38.7703 0.649744 40.0717Z" fill="black"/>
<path d="M172.519 40.4162C170.611 41.4573 170.524 43.2792 172.259 45.0144C174.862 47.5304 178.419 43.5395 176.163 40.7632C174.948 39.2883 174.515 39.2015 172.519 40.4162Z" fill="black"/>
<path d="M142.937 42.6751C141.028 44.5838 143.544 48.5748 146.06 47.6204C147.882 46.9264 148.663 44.6706 147.448 43.2825C146.407 41.9811 143.891 41.634 142.937 42.6751Z" fill="black"/>
<path d="M111.965 52.0448C109.709 54.7344 113.093 59.1591 115.783 56.9034C117.431 55.5152 117.604 53.2595 116.13 51.7846C114.741 50.3964 113.267 50.4832 111.965 52.0448Z" fill="black"/>
<path d="M80.904 52.3898C80.2099 52.7368 79.8629 54.0382 80.0364 55.1661C80.3834 57.6821 83.9406 58.1159 85.3287 55.7734C86.9772 53.1706 83.6803 50.5678 80.904 52.3898Z" fill="black"/>
<path d="M192.649 53.3432C191.174 54.8181 191.087 55.3387 191.954 56.8136C193.343 58.9826 195.772 59.0694 196.987 56.9004C198.288 54.4711 198.114 53.5167 196.119 52.4756C194.818 51.7816 194.037 51.9551 192.649 53.3432Z" fill="black"/>
<path d="M583.238 52.3914C581.416 53.5192 582.284 57.1631 584.453 57.5102C586.795 57.8572 588.531 55.6882 587.836 53.3457C587.229 51.5238 585.234 51.09 583.238 52.3914Z" fill="black"/>
<path d="M134.691 53.2601C132.869 54.388 133.736 58.0319 135.992 58.3789C138.248 58.726 139.549 55.6894 137.988 53.7807C136.773 52.3058 136.252 52.219 134.691 53.2601Z" fill="black"/>
<path d="M144.932 53.7792C143.284 55.7747 144.238 58.1172 146.668 58.1172C148.056 58.1172 148.923 57.5966 149.097 56.5555C149.444 54.9938 147.882 52.4778 146.668 52.4778C146.321 52.4778 145.54 53.0851 144.932 53.7792Z" fill="black"/>
<path d="M157.078 55.0838C157.078 57.5131 157.338 57.7733 159.507 57.5131C161.329 57.3395 161.85 56.819 161.85 55.0838C161.85 53.3486 161.329 52.8281 159.507 52.6545C157.338 52.3943 157.078 52.6545 157.078 55.0838Z" fill="black"/>
<path d="M169.224 53.6904C166.881 56.5534 170.785 59.9371 173.388 57.3343C174.516 56.2064 174.603 55.5991 173.909 54.3845C172.607 52.389 170.612 52.1287 169.224 53.6904Z" fill="black"/>
<path d="M179.981 53.6925C179.027 56.2085 179.981 58.1172 182.237 58.1172C184.059 58.1172 184.406 57.6834 184.406 55.5144C184.406 53.4322 183.972 52.8249 182.411 52.6513C181.283 52.4778 180.328 52.9116 179.981 53.6925Z" fill="black"/>
<path d="M203.841 53.867C202.453 55.6022 203.755 58.0314 206.357 58.3785C207.745 58.552 208.353 58.1182 208.787 56.4698C209.047 55.2551 209.047 53.867 208.7 53.4332C207.919 52.045 205.143 52.3053 203.841 53.867Z" fill="black"/>
<path d="M214.861 54.0376C213.994 56.6404 215.208 58.6359 217.291 58.3756C219.98 58.0285 219.893 52.9965 217.204 52.6495C215.989 52.4759 215.208 52.9097 214.861 54.0376Z" fill="black"/>
<path d="M226.225 53.0019C225.097 54.1297 225.617 57.7736 226.919 58.2074C228.741 58.9883 230.997 56.906 230.649 54.7371C230.389 52.9151 227.439 51.7872 226.225 53.0019Z" fill="black"/>
<path d="M239.414 54.2995C238.546 56.0347 238.633 56.4685 240.368 57.8566C242.797 59.8521 244.879 58.4639 244.532 55.1671C244.185 52.1305 240.889 51.6099 239.414 54.2995Z" fill="black"/>
<path d="M326.864 53.0819C325.91 53.9495 326.17 57.5066 327.125 58.1139C328.86 59.155 331.463 57.5934 331.463 55.5111C331.463 53.1686 328.426 51.5202 326.864 53.0819Z" fill="black"/>
<path d="M337.709 53.5125C336.147 55.0742 336.408 57.5034 338.23 58.4578C340.485 59.6724 342.047 58.2843 341.7 55.4212C341.44 52.7317 339.444 51.7773 337.709 53.5125Z" fill="black"/>
<path d="M419.09 53.7792C416.834 56.4688 420.218 60.8935 422.908 58.6377C424.556 57.2496 424.729 54.9938 423.255 53.5189C421.866 52.1308 420.392 52.2175 419.09 53.7792Z" fill="black"/>
<path d="M532.486 53.0019C531.359 54.1297 531.879 57.7736 533.181 58.2074C535.002 58.9883 537.258 56.906 536.911 54.7371C536.651 52.9151 533.701 51.7872 532.486 53.0019Z" fill="black"/>
<path d="M540.988 53.4281C539.946 55.0765 541.335 58.5469 543.07 58.5469C545.412 58.5469 546.54 56.7249 545.673 54.3824C544.892 52.387 541.942 51.7796 540.988 53.4281Z" fill="black"/>
<path d="M560.856 53.7755C560.248 55.2504 561.897 57.6797 563.458 57.6797C565.194 57.6797 566.408 55.9445 565.974 54.1226C565.454 52.1271 561.55 51.8668 560.856 53.7755Z" fill="black"/>
<path d="M280.885 53.9509C280.538 54.2112 280.277 55.339 280.277 56.4669C280.277 59.1564 282.793 59.8505 284.962 57.7683C286.351 56.2934 286.437 55.8596 285.483 54.7317C284.355 53.3436 281.839 52.9098 280.885 53.9509Z" fill="black"/>
<path d="M311.682 54.4659C311.161 55.0732 310.901 56.4614 311.248 57.5025C311.942 60.2788 315.673 60.1053 316.367 57.329C316.627 56.1144 316.627 54.7262 316.28 54.2924C315.499 52.991 312.81 53.0778 311.682 54.4659Z" fill="black"/>
<path d="M444.51 53.952C443.209 54.4726 443.035 59.0708 444.25 59.8517C444.771 60.1119 445.898 60.1119 446.853 59.8517C448.762 59.2444 449.195 56.0343 447.547 54.3858C446.419 53.2579 446.159 53.2579 444.51 53.952Z" fill="black"/>
<path d="M239.5 72.8683C237.851 74.8638 238.806 77.2063 241.409 77.4666C243.057 77.6401 243.838 77.2931 244.272 75.9049C245.313 72.5213 241.756 70.1788 239.5 72.8683Z" fill="black"/>
<path d="M287.304 73.6452C285.483 75.8142 286.437 78.9375 288.866 78.9375C291.556 78.9375 293.204 76.5082 291.903 74.3393C290.601 72.3438 288.606 72.0835 287.304 73.6452Z" fill="black"/>
<path d="M206.617 74.5149C205.056 76.4236 206.964 79.547 209.394 79.1999C212.083 78.8529 212.17 73.8208 209.481 73.4738C208.526 73.3003 207.225 73.8208 206.617 74.5149Z" fill="black"/>
<path d="M173.214 75.8108C171.999 77.199 171.912 77.8063 172.693 79.368C173.821 81.4502 175.99 81.3635 177.378 79.1077C178.072 78.0666 178.072 77.199 177.378 76.1579C176.077 73.9889 174.949 73.9021 173.214 75.8108Z" fill="black"/>
<path d="M314.198 76.2471C312.463 78.3294 313.417 80.6719 315.847 80.6719C317.668 80.6719 318.016 80.2381 318.016 78.0691C318.016 75.1193 315.933 74.1649 314.198 76.2471Z" fill="black"/>
<path d="M542.463 76.9418C540.207 79.1975 542.289 83.4487 545.152 82.3209C547.061 81.6268 547.669 79.5446 546.627 77.5491C545.586 75.6404 544.025 75.3801 542.463 76.9418Z" fill="black"/>
<path d="M561.376 77.5475C560.248 79.7165 560.248 79.89 561.897 81.4517C563.545 83.1869 566.582 81.8855 566.582 79.543C566.582 76.0726 562.938 74.7712 561.376 77.5475Z" fill="black"/>
<path d="M145.537 77.3757C144.495 78.3301 144.842 80.8461 146.144 81.8872C148.4 83.7959 151.61 81.0196 150.482 78.0698C149.961 76.7684 146.578 76.2479 145.537 77.3757Z" fill="black"/>
<path d="M338.575 77.8072C336.319 80.063 338.054 83.8804 341.091 83.0995C343.173 82.4922 343.346 78.0675 341.351 77.2867C339.616 76.5926 339.789 76.5926 338.575 77.8072Z" fill="black"/>
<path d="M422.907 77.9815C421.953 80.4975 422.907 82.4062 425.163 82.4062C426.985 82.4062 427.332 81.9725 427.332 79.8035C427.332 77.7212 426.898 77.1139 425.336 76.9404C424.208 76.7669 423.254 77.2007 422.907 77.9815Z" fill="black"/>
<path d="M444.598 78.8487C443.644 81.3647 444.598 83.2734 446.854 83.2734C448.676 83.2734 449.023 82.8396 449.023 80.6707C449.023 78.5884 448.589 77.9811 447.028 77.8076C445.9 77.6341 444.945 78.0679 444.598 78.8487Z" fill="black"/>
<path d="M636.767 79.455C635.899 81.1034 635.986 81.624 637.634 82.9254C640.324 85.0944 642.233 84.14 641.886 80.7564C641.539 77.286 638.415 76.5052 636.767 79.455Z" fill="black"/>
<path d="M112.486 79.8943C111.705 80.5883 111.098 81.4559 111.098 81.803C111.184 85.0998 116.563 85.4469 116.997 82.2368C117.344 79.634 114.308 77.9856 112.486 79.8943Z" fill="black"/>
<path d="M0.649849 79.8898C-0.391264 80.9309 -0.0442266 83.4469 1.25716 84.488C3.16587 86.0497 6.28921 84.141 5.94217 81.7117C5.6819 79.803 2.038 78.5884 0.649849 79.8898Z" fill="black"/>
<path d="M88.7117 82.5823C87.2367 85.4454 89.1454 88.2217 92.182 87.3541C94.6981 86.7468 94.004 81.628 91.4012 81.2809C90.2733 81.1074 89.2322 81.628 88.7117 82.5823Z" fill="black"/>
<path d="M239.237 86.917C237.328 88.7389 239.237 92.3828 242.1 92.3828C243.402 92.3828 244.79 89.1727 244.182 87.6978C243.662 86.3097 240.278 85.7891 239.237 86.917Z" fill="black"/>
<path d="M282.359 88.4786C281.492 90.6476 282.707 92.3828 284.962 92.3828C287.565 92.3828 288.433 91.2549 287.652 88.9124C286.958 86.8302 283.054 86.4832 282.359 88.4786Z" fill="black"/>
<path d="M39.0827 91.6004C37.8681 93.6826 39.2562 95.8516 41.7723 95.8516C43.9413 95.8516 45.5897 92.6415 44.2015 90.993C42.7266 89.2578 40.1238 89.5181 39.0827 91.6004Z" fill="black"/>
<path d="M172.348 91.1697C170.7 92.8181 170.613 93.3387 172.088 95.3342C173.823 97.6767 176.512 96.8091 176.859 93.7725C177.293 90.1286 174.777 88.6537 172.348 91.1697Z" fill="black"/>
<path d="M206.53 91.0839C204.969 92.9926 206.443 95.4219 209.22 95.4219C210.955 95.4219 211.302 94.9881 211.302 92.8191C211.302 90.8236 210.868 90.1296 209.48 89.956C208.526 89.7825 207.138 90.3031 206.53 91.0839Z" fill="black"/>
<path d="M313.676 92.4696C312.809 95.0724 315.238 97.5017 317.407 96.2003C318.188 95.6797 318.882 94.2916 318.882 93.1637C318.882 90.2139 314.544 89.6066 313.676 92.4696Z" fill="black"/>
<path d="M337.797 92.0379C337.103 93.9466 338.664 96.2891 340.573 96.2891C342.482 96.2891 344.043 93.9466 343.349 92.0379C342.655 90.2159 338.491 90.2159 337.797 92.0379Z" fill="black"/>
<path d="M538.21 92.0379C537.516 93.9466 539.078 96.2891 541.074 96.2891C542.288 96.2891 542.809 95.595 542.982 93.426C543.243 90.91 543.069 90.6497 540.987 90.6497C539.772 90.6497 538.558 91.257 538.21 92.0379Z" fill="black"/>
<path d="M17.1347 92.5581C15.3995 93.5124 15.226 96.1152 16.8744 97.5034C19.1301 99.4121 22.3402 96.6358 21.2124 93.7727C20.5183 92.0375 18.8699 91.517 17.1347 92.5581Z" fill="black"/>
<path d="M143.54 92.7315C142.586 95.2475 143.54 97.1562 145.796 97.1562C147.618 97.1562 147.965 96.7225 147.965 94.5535C147.965 92.4712 147.531 91.8639 145.969 91.6904C144.841 91.5169 143.887 91.9507 143.54 92.7315Z" fill="black"/>
<path d="M445.726 92.5613C442.95 94.0362 444.512 98.4609 447.808 98.4609C449.544 98.4609 450.585 96.292 449.891 94.123C449.283 92.1275 447.548 91.5202 445.726 92.5613Z" fill="black"/>
<path d="M561.896 92.9127C559.553 95.1685 562.85 99.5932 565.279 97.5977C567.015 96.2096 566.928 92.7392 565.193 92.0451C563.371 91.3511 563.458 91.3511 561.896 92.9127Z" fill="black"/>
<path d="M419.091 94.1226C417.703 96.7253 418.831 99.3281 421.26 99.3281C424.123 99.3281 425.338 95.2504 422.995 93.5152C420.826 91.9536 420.219 92.0403 419.091 94.1226Z" fill="black"/>
<path d="M0.391297 94.555C-0.823335 97.7651 2.64704 100.541 4.98955 98.1989C6.89825 96.2902 5.68362 93.2536 2.99408 93.2536C1.77945 93.2536 0.651575 93.8609 0.391297 94.555Z" fill="black"/>
<path d="M104.501 95.3331C103.546 97.8491 104.501 99.7578 106.757 99.7578C108.578 99.7578 108.926 99.324 108.926 97.155C108.926 95.0728 108.492 94.4655 106.93 94.292C105.802 94.1185 104.848 94.5522 104.501 95.3331Z" fill="black"/>
<path d="M112.83 95.4222C111.442 97.1574 112.049 99.6734 114.045 100.02C116.387 100.541 118.209 97.8514 117.081 95.7692C116.04 93.7737 114.305 93.687 112.83 95.4222Z" fill="black"/>
<path d="M81.5963 97.9425C80.2082 99.7645 80.8155 103.148 82.7242 103.495C86.2813 104.189 88.2768 99.3307 85.1535 97.5955C82.9845 96.4676 82.8977 96.4676 81.5963 97.9425Z" fill="black"/>
<path d="M282.273 98.1082C281.579 100.017 283.141 102.359 285.05 102.359C286.958 102.359 288.52 100.017 287.826 98.1082C287.132 96.2862 282.967 96.2862 282.273 98.1082Z" fill="black"/>
<path d="M538.556 99.843C537.515 100.884 537.862 104.268 539.163 105.309C541.246 107.044 543.241 105.482 542.981 102.446C542.807 100.537 542.2 99.6695 540.985 99.496C539.944 99.3224 538.903 99.496 538.556 99.843Z" fill="black"/>
<path d="M282.879 106.697C281.317 108.519 282.618 111.469 285.048 111.469C286.349 111.469 287.303 110.861 287.65 109.734C288.258 107.738 286.783 105.396 285.048 105.396C284.44 105.396 283.486 106.003 282.879 106.697Z" fill="black"/>
<path d="M1.17145 107.741C-0.216704 108.262 -0.303464 111.645 1.08469 113.034C2.73312 114.682 4.29479 114.248 5.42266 111.906C6.89757 108.609 4.55506 106.353 1.17145 107.741Z" fill="black"/>
<path d="M143.284 108.356C141.115 110.958 143.978 114.689 147.189 113.474C149.271 112.694 148.49 107.662 146.147 107.315C145.193 107.141 143.892 107.662 143.284 108.356Z" fill="black"/>
<path d="M39.3437 111.124C38.6496 113.032 40.2113 115.375 42.12 115.375C44.0287 115.375 45.5904 113.032 44.8963 111.124C44.2022 109.302 40.0378 109.302 39.3437 111.124Z" fill="black"/>
<path d="M30.4074 119.192C29.1927 121.535 30.2338 123.617 32.6631 123.617C34.138 123.617 34.8321 123.01 35.2659 121.535C35.5262 120.32 35.5262 118.932 35.1791 118.498C34.3115 116.937 31.3617 117.457 30.4074 119.192Z" fill="black"/>
<path d="M40.3829 119.887C38.7345 121.536 38.9948 123.531 40.9902 124.832C43.0725 126.134 45.5885 123.705 44.8076 121.189C44.0268 118.846 42.0313 118.239 40.3829 119.887Z" fill="black"/>
</svg>
