<svg width="635" height="563" viewBox="0 0 635 563" fill="none" xmlns="http://www.w3.org/2000/svg">
<path d="M0 0L292 273L635 563H0V0Z" fill="#272727"/>
<path d="M37.9154 486L29.6354 458.08H33.1954L37.1554 472.04L40.1554 482.6H40.3554L43.3554 472.04L47.3154 458.08H50.7554L42.4754 486H37.9154ZM54.5989 486V483.32H61.5589V460.76H54.5989V458.08H71.8789V460.76H64.9189V483.32H71.8789V486H54.5989ZM80.8025 462.48H80.5225V486H77.4825V458.08H82.2425L91.7625 481.6H92.0425V458.08H95.0825V486H90.3225L80.8025 462.48ZM111.006 461V486H107.646V461H98.326V458.08H120.326V461H111.006ZM132.369 486.48C130.663 486.48 129.196 486.16 127.969 485.52C126.743 484.853 125.729 483.907 124.929 482.68C124.129 481.453 123.543 479.947 123.169 478.16C122.796 476.373 122.609 474.333 122.609 472.04C122.609 469.773 122.796 467.747 123.169 465.96C123.543 464.147 124.129 462.627 124.929 461.4C125.729 460.173 126.743 459.24 127.969 458.6C129.196 457.933 130.663 457.6 132.369 457.6C134.076 457.6 135.543 457.933 136.769 458.6C137.996 459.24 139.009 460.173 139.809 461.4C140.609 462.627 141.196 464.147 141.569 465.96C141.943 467.747 142.129 469.773 142.129 472.04C142.129 474.333 141.943 476.373 141.569 478.16C141.196 479.947 140.609 481.453 139.809 482.68C139.009 483.907 137.996 484.853 136.769 485.52C135.543 486.16 134.076 486.48 132.369 486.48ZM132.369 483.56C133.489 483.56 134.436 483.347 135.209 482.92C135.983 482.467 136.623 481.84 137.129 481.04C137.636 480.24 137.996 479.28 138.209 478.16C138.449 477.013 138.569 475.733 138.569 474.32V469.76C138.569 468.373 138.449 467.107 138.209 465.96C137.996 464.813 137.636 463.84 137.129 463.04C136.623 462.24 135.983 461.627 135.209 461.2C134.436 460.747 133.489 460.52 132.369 460.52C131.249 460.52 130.303 460.747 129.529 461.2C128.756 461.627 128.116 462.24 127.609 463.04C127.103 463.84 126.729 464.813 126.489 465.96C126.276 467.107 126.169 468.373 126.169 469.76V474.32C126.169 475.733 126.276 477.013 126.489 478.16C126.729 479.28 127.103 480.24 127.609 481.04C128.116 481.84 128.756 482.467 129.529 482.92C130.303 483.347 131.249 483.56 132.369 483.56ZM149.933 462.48H149.653V486H146.613V458.08H151.373L160.893 481.6H161.173V458.08H164.213V486H159.453L149.933 462.48ZM170.056 486V458.08H187.256V461H173.416V470.4H186.776V473.32H173.416V483.08H187.256V486H170.056ZM216.144 486V458.08H226.304C228.89 458.08 230.864 458.787 232.224 460.2C233.584 461.613 234.264 463.587 234.264 466.12C234.264 468.653 233.584 470.627 232.224 472.04C230.864 473.453 228.89 474.16 226.304 474.16H219.504V486H216.144ZM219.504 471.24H226.224C227.637 471.24 228.73 470.893 229.504 470.2C230.304 469.48 230.704 468.467 230.704 467.16V465.08C230.704 463.773 230.304 462.773 229.504 462.08C228.73 461.36 227.637 461 226.224 461H219.504V471.24ZM247.587 486.48C245.88 486.48 244.414 486.16 243.187 485.52C241.96 484.853 240.947 483.907 240.147 482.68C239.347 481.453 238.76 479.947 238.387 478.16C238.014 476.373 237.827 474.333 237.827 472.04C237.827 469.773 238.014 467.747 238.387 465.96C238.76 464.147 239.347 462.627 240.147 461.4C240.947 460.173 241.96 459.24 243.187 458.6C244.414 457.933 245.88 457.6 247.587 457.6C249.294 457.6 250.76 457.933 251.987 458.6C253.214 459.24 254.227 460.173 255.027 461.4C255.827 462.627 256.414 464.147 256.787 465.96C257.16 467.747 257.347 469.773 257.347 472.04C257.347 474.333 257.16 476.373 256.787 478.16C256.414 479.947 255.827 481.453 255.027 482.68C254.227 483.907 253.214 484.853 251.987 485.52C250.76 486.16 249.294 486.48 247.587 486.48ZM247.587 483.56C248.707 483.56 249.654 483.347 250.427 482.92C251.2 482.467 251.84 481.84 252.347 481.04C252.854 480.24 253.214 479.28 253.427 478.16C253.667 477.013 253.787 475.733 253.787 474.32V469.76C253.787 468.373 253.667 467.107 253.427 465.96C253.214 464.813 252.854 463.84 252.347 463.04C251.84 462.24 251.2 461.627 250.427 461.2C249.654 460.747 248.707 460.52 247.587 460.52C246.467 460.52 245.52 460.747 244.747 461.2C243.974 461.627 243.334 462.24 242.827 463.04C242.32 463.84 241.947 464.813 241.707 465.96C241.494 467.107 241.387 468.373 241.387 469.76V474.32C241.387 475.733 241.494 477.013 241.707 478.16C241.947 479.28 242.32 480.24 242.827 481.04C243.334 481.84 243.974 482.467 244.747 482.92C245.52 483.347 246.467 483.56 247.587 483.56ZM271.551 486.48C268.137 486.48 265.591 485.24 263.911 482.76C262.257 480.28 261.431 476.707 261.431 472.04C261.431 467.373 262.257 463.8 263.911 461.32C265.591 458.84 268.137 457.6 271.551 457.6C272.831 457.6 273.937 457.773 274.871 458.12C275.804 458.467 276.604 458.933 277.271 459.52C277.937 460.107 278.497 460.773 278.951 461.52C279.404 462.24 279.804 462.973 280.151 463.72L277.271 465.04C277.031 464.427 276.751 463.853 276.431 463.32C276.111 462.76 275.724 462.28 275.271 461.88C274.844 461.453 274.324 461.12 273.711 460.88C273.124 460.64 272.404 460.52 271.551 460.52C269.337 460.52 267.684 461.36 266.591 463.04C265.524 464.72 264.991 466.96 264.991 469.76V474.32C264.991 477.12 265.524 479.36 266.591 481.04C267.684 482.72 269.337 483.56 271.551 483.56C272.404 483.56 273.124 483.44 273.711 483.2C274.324 482.96 274.844 482.64 275.271 482.24C275.724 481.813 276.111 481.333 276.431 480.8C276.751 480.24 277.031 479.653 277.271 479.04L280.151 480.36C279.804 481.133 279.404 481.88 278.951 482.6C278.497 483.32 277.937 483.973 277.271 484.56C276.604 485.147 275.804 485.613 274.871 485.96C273.937 486.307 272.831 486.48 271.551 486.48ZM292.434 472.32L288.434 477.04V486H285.074V458.08H288.434V472.64H288.554L292.234 468L300.474 458.08H304.514L294.714 469.84L304.794 486H300.874L292.434 472.32ZM308.318 486V458.08H325.518V461H311.678V470.4H325.038V473.32H311.678V483.08H325.518V486H308.318ZM341.441 461V486H338.081V461H328.761V458.08H350.761V461H341.441Z" fill="white"/>
</svg>
